<svg width="51" height="52" viewBox="0 0 51 52" fill="none" xmlns="http://www.w3.org/2000/svg">
<path d="M13.8975 10.8333C14.025 12.7617 14.3437 14.6467 14.8537 16.445L12.3038 19.045C11.4325 16.445 10.88 13.6933 10.6888 10.8333H13.8975ZM34.85 36.8767C36.6562 37.3967 38.505 37.7217 40.375 37.8517V41.08C37.57 40.885 34.8713 40.3217 32.3 39.455L34.85 36.8767ZM15.9375 6.5H8.5C7.33125 6.5 6.375 7.475 6.375 8.66667C6.375 29.0117 22.5462 45.5 42.5 45.5C43.6688 45.5 44.625 44.525 44.625 43.3333V35.7717C44.625 34.58 43.6688 33.605 42.5 33.605C39.865 33.605 37.2938 33.1717 34.9137 32.37C34.7028 32.292 34.4793 32.2552 34.255 32.2617C33.7025 32.2617 33.1712 32.4783 32.7463 32.89L28.0713 37.6567C22.0478 34.5158 17.1479 29.5199 14.0675 23.3783L18.7425 18.6117C19.3375 18.005 19.5075 17.16 19.2737 16.4017C18.4676 13.9058 18.0587 11.2944 18.0625 8.66667C18.0625 7.475 17.1062 6.5 15.9375 6.5Z" fill="#DB3C71"/>
</svg>
