<svg width="69" height="69" viewBox="0 0 69 69" fill="none" xmlns="http://www.w3.org/2000/svg">
<path d="M59.7498 9.25004C59.4588 8.9604 59.0912 8.75987 58.6901 8.67201C58.289 8.58416 57.8712 8.61264 57.4858 8.75411L10.0483 26.0041C9.63917 26.1593 9.28695 26.4352 9.0384 26.7954C8.78985 27.1555 8.65674 27.5826 8.65674 28.0202C8.65674 28.4578 8.78985 28.8849 9.0384 29.245C9.28695 29.6052 9.63917 29.8811 10.0483 30.0363L30.7483 38.3163L39.0283 59.0163C39.1838 59.4074 39.4505 59.7445 39.7953 59.9859C40.1402 60.2273 40.5481 60.3624 40.9689 60.3747C41.4047 60.3658 41.8275 60.225 42.1816 59.971C42.5357 59.7169 42.8046 59.3615 42.9527 58.9516L60.2027 11.5141C60.3496 11.1326 60.385 10.7172 60.3048 10.3164C60.2247 9.9155 60.0322 9.54569 59.7498 9.25004ZM40.9689 52.181L34.953 37.0872L45.2814 26.7588L42.2411 23.7185L31.8264 34.1332L16.8189 28.031L54.618 14.3819L40.9689 52.181Z" fill="#DB3C71"/>
</svg>
