<svg width="394" height="384" viewBox="0 0 394 384" fill="none" xmlns="http://www.w3.org/2000/svg">
<ellipse cx="280.5" cy="357.5" rx="113.5" ry="26.5" fill="#EAEBF2"/>
<circle cx="113.5" cy="113.5" r="113.5" fill="#EAEBF2"/>
<g clip-path="url(#clip0)">
<path d="M261.6 176.01C245.95 175.79 127.62 158.57 127.62 158.57L124.72 112.75" stroke="#000D2D" stroke-width="4" stroke-miterlimit="10" stroke-linecap="round" stroke-linejoin="round"/>
<path d="M229.47 317.23C234.291 317.23 238.2 313.321 238.2 308.5C238.2 303.679 234.291 299.77 229.47 299.77C224.649 299.77 220.74 303.679 220.74 308.5C220.74 313.321 224.649 317.23 229.47 317.23Z" fill="#000D2D"/>
<path d="M229.47 311.11C228.64 311.11 227.97 310.44 227.97 309.61V294.51C227.97 293.68 228.64 293.01 229.47 293.01C230.3 293.01 230.97 293.68 230.97 294.51V309.61C230.97 310.44 230.29 311.11 229.47 311.11Z" fill="#000D2D"/>
<path d="M160.87 311.88C165.691 311.88 169.6 307.971 169.6 303.15C169.6 298.329 165.691 294.42 160.87 294.42C156.049 294.42 152.14 298.329 152.14 303.15C152.14 307.971 156.049 311.88 160.87 311.88Z" fill="#000D2D"/>
<path d="M160.87 305.77C160.04 305.77 159.37 305.1 159.37 304.27V289.17C159.37 288.34 160.04 287.67 160.87 287.67C161.7 287.67 162.37 288.34 162.37 289.17V304.27C162.37 305.09 161.7 305.77 160.87 305.77Z" fill="#000D2D"/>
<path d="M261.6 176.01C261.77 179.13 232.28 186.98 228.23 186.93C212.58 186.7 88.49 168.84 88.49 168.84L85.29 118.31" stroke="#000D2D" stroke-width="4" stroke-miterlimit="10" stroke-linecap="round" stroke-linejoin="round"/>
<path d="M88.49 168.84L102.67 239.33C103.39 242.87 106.33 245.54 109.93 245.92L210.55 258.33C217.93 258.82 225.33 257.53 232.11 254.57L249.17 247.13C252.54 245.66 254.86 242.48 255.23 238.82L261.6 176.03" stroke="#000D2D" stroke-width="4" stroke-miterlimit="10" stroke-linecap="round" stroke-linejoin="round"/>
<path d="M100.61 229.09C100.78 229.12 101.19 229.18 101.36 229.2L211.41 242.77C219.48 243.3 227.57 241.89 234.99 238.65L253.65 230.51C254.36 230.2 255.62 229.36 256.24 228.92" stroke="#000D2D" stroke-width="4" stroke-miterlimit="10" stroke-linecap="round" stroke-linejoin="round"/>
<path d="M225.57 186.93L220.91 257.84" stroke="#000D2D" stroke-width="4" stroke-miterlimit="10" stroke-linecap="round" stroke-linejoin="round"/>
<path d="M188.47 339.32C193.291 339.32 197.2 335.411 197.2 330.59C197.2 325.769 193.291 321.86 188.47 321.86C183.649 321.86 179.74 325.769 179.74 330.59C179.74 335.411 183.649 339.32 188.47 339.32Z" fill="#000D2D"/>
<path d="M188.47 333.2C187.64 333.2 186.97 332.53 186.97 331.7V316.6C186.97 315.77 187.64 315.1 188.47 315.1C189.3 315.1 189.97 315.77 189.97 316.6V331.7C189.97 332.53 189.3 333.2 188.47 333.2Z" fill="#000D2D"/>
<path d="M119.88 333.97C124.701 333.97 128.61 330.061 128.61 325.24C128.61 320.419 124.701 316.51 119.88 316.51C115.059 316.51 111.15 320.419 111.15 325.24C111.15 330.061 115.059 333.97 119.88 333.97Z" fill="#000D2D"/>
<path d="M119.88 327.86C119.05 327.86 118.38 327.19 118.38 326.36V311.26C118.38 310.43 119.05 309.76 119.88 309.76C120.71 309.76 121.38 310.43 121.38 311.26V326.36C121.38 327.19 120.71 327.86 119.88 327.86Z" fill="#000D2D"/>
<path d="M68.07 122.09L143.11 113.21C146.19 112.96 148.5 110.24 148.25 107.16C148 104.08 145.28 101.77 142.2 102.02L67.16 110.9C64.08 111.15 61.77 113.87 62.02 116.95C62.27 120.02 64.99 122.34 68.07 122.09Z" fill="#F29430"/>
<path d="M97.61 214.17L211.41 228C219.48 228.53 227.57 227.12 234.99 223.88L253.65 215.74C255.12 215.1 256.86 213.62 257.91 212.47" stroke="#000D2D" stroke-width="4" stroke-miterlimit="10" stroke-linecap="round" stroke-linejoin="round"/>
<path d="M94.3 197.7L212.16 211.6C220.5 212.13 228.85 210.72 236.5 207.48L255.76 199.34C257.01 198.81 258.52 197.71 259.48 196.82" stroke="#000D2D" stroke-width="4" stroke-miterlimit="10" stroke-linecap="round" stroke-linejoin="round"/>
<path d="M91.47 183.63L213.5 197.08C222.53 197.61 231.58 196.2 239.87 192.96L260.74 184.82" stroke="#000D2D" stroke-width="4" stroke-miterlimit="10" stroke-linecap="round" stroke-linejoin="round"/>
<path d="M200.6 185.43L197.3 256.69" stroke="#000D2D" stroke-width="4" stroke-miterlimit="10" stroke-linecap="round" stroke-linejoin="round"/>
<path d="M178.29 181.26L175.13 253.96" stroke="#000D2D" stroke-width="4" stroke-miterlimit="10" stroke-linecap="round" stroke-linejoin="round"/>
<path d="M155.82 178.25L152.77 251.2" stroke="#000D2D" stroke-width="4" stroke-miterlimit="10" stroke-linecap="round" stroke-linejoin="round"/>
<path d="M133.45 175.18L131.51 248.58" stroke="#000D2D" stroke-width="4" stroke-miterlimit="10" stroke-linecap="round" stroke-linejoin="round"/>
<path d="M111.05 172.05L109.93 245.91" stroke="#000D2D" stroke-width="4" stroke-miterlimit="10" stroke-linecap="round" stroke-linejoin="round"/>
<path d="M129.53 248.58C129.53 248.58 102.1 270.51 119.15 309.19L188.47 315.5C174.35 283.46 191.26 264.46 197.31 256.7" stroke="#000D2D" stroke-width="4" stroke-miterlimit="10" stroke-linecap="round" stroke-linejoin="round"/>
<path d="M156.67 252.69C153.65 263.96 153.14 271.2 160.15 287.09L229.47 293.4C221.94 276.33 223.08 268.15 226.71 256.53" stroke="#000D2D" stroke-width="4" stroke-miterlimit="10" stroke-linecap="round" stroke-linejoin="round"/>
</g>
<g clip-path="url(#clip1)">
<path d="M246.62 256.105C246.715 256.847 246.821 257.708 246.94 258.563C247.058 259.424 247.224 260.291 247.372 261.057C247.532 261.888 247.698 262.648 247.881 263.378C248.082 264.179 248.307 264.975 248.526 265.711C248.615 266.014 248.716 266.329 248.846 266.679L248.923 266.887C249.03 267.183 249.136 267.48 249.243 267.777C249.521 268.519 249.793 269.249 250.113 269.956C250.433 270.662 250.782 271.416 251.191 272.147C251.587 272.847 251.972 273.536 252.392 274.207C252.505 274.391 252.623 274.575 252.742 274.759C252.83 274.901 252.925 275.044 253.014 275.186L253.174 275.436C253.322 275.667 253.47 275.911 253.624 276.142C254.074 276.819 254.535 277.502 255.009 278.173C255.394 278.725 255.844 279.301 256.43 280.001C256.998 280.678 257.513 281.29 258.058 281.877C258.218 282.05 258.384 282.222 258.543 282.394C258.869 282.738 259.206 283.094 259.526 283.451L259.615 283.546C259.763 283.712 259.911 283.872 260.053 284.038C260.166 284.169 260.278 284.3 260.391 284.436C260.61 284.691 260.829 284.947 261.048 285.202C261.207 285.386 261.367 285.564 261.521 285.742C261.646 285.885 261.77 286.021 261.894 286.164L262.001 286.288C262.107 286.455 262.214 286.621 262.315 286.787C262.605 287.262 262.889 287.743 263.167 288.23C263.303 288.467 263.439 288.705 263.564 288.948C263.7 289.215 263.824 289.471 263.996 289.708C264.085 289.833 264.197 289.94 264.298 290.058C264.333 290.1 264.363 290.136 264.404 290.171C264.523 290.272 264.588 290.332 264.73 290.385C264.848 290.427 265.002 290.444 265.127 290.415C265.399 290.355 265.618 290.159 265.713 289.892C265.76 289.75 265.778 289.601 265.778 289.453C265.778 289.364 265.766 289.281 265.754 289.192C265.766 289.097 265.766 288.996 265.742 288.889C265.399 287.304 265.014 285.505 264.659 283.747C264.576 283.267 264.493 282.786 264.41 282.305C264.239 281.296 264.061 280.257 263.854 279.235C263.593 277.959 263.327 276.677 263.061 275.4L262.865 274.444C262.705 273.678 262.522 272.901 262.32 272.135C262.167 271.553 262.001 270.965 261.835 270.401L261.693 269.908C261.326 268.614 260.911 267.314 260.509 266.055L260.331 265.491C259.775 263.74 259.313 262.398 258.839 261.134L258.626 260.57C258.159 259.323 257.679 258.035 257.14 256.788L257.04 256.556C256.761 255.915 256.477 255.256 256.217 254.597C256.175 254.49 256.134 254.383 256.092 254.271C255.998 254.021 255.897 253.772 255.796 253.523C255.731 253.374 255.672 253.226 255.607 253.077C255.518 252.864 255.423 252.65 255.335 252.442C255.175 252.056 255.015 251.67 254.855 251.278C254.76 251.053 254.678 250.815 254.589 250.584C254.547 250.471 254.506 250.358 254.464 250.245C254.18 249.503 253.884 248.755 253.606 248.066C253.316 247.354 253.02 246.624 252.736 245.888C252.463 245.181 252.155 244.469 251.859 243.78L251.848 243.756L251.824 243.703C251.51 242.973 251.185 242.219 250.806 241.506C250.593 241.108 250.409 240.782 250.184 240.467C250.06 240.289 249.912 240.129 249.752 239.951C249.574 239.749 249.403 239.612 249.231 239.523C249.148 239.476 249.053 239.446 248.941 239.416C248.899 239.405 248.828 239.399 248.757 239.399C248.639 239.399 248.526 239.416 248.467 239.446C248.444 239.458 248.42 239.464 248.402 239.476C248.331 239.505 248.26 239.541 248.195 239.589L248.118 239.66L248.041 239.731C247.976 239.814 247.917 239.903 247.875 239.998C247.798 240.158 247.757 240.343 247.721 240.521L247.65 240.847C247.573 241.227 247.496 241.607 247.419 241.987C247.277 242.729 247.147 243.453 246.999 244.32C246.869 245.086 246.744 245.846 246.644 246.582C246.531 247.372 246.448 248.185 246.395 249.005C246.336 249.954 246.306 250.732 246.306 251.451C246.306 252.169 246.336 252.953 246.383 253.92C246.448 254.674 246.531 255.416 246.62 256.105Z" fill="#586386"/>
<path d="M263.552 240.865C263.552 240.966 263.558 241.067 263.558 241.162C263.564 241.393 263.564 241.631 263.576 241.868L263.582 242.07C263.593 242.403 263.611 242.741 263.629 243.074C263.641 243.293 263.653 243.513 263.67 243.733C263.676 243.869 263.694 244.006 263.712 244.142C263.718 244.213 263.73 244.279 263.736 244.35C263.878 245.751 264.197 247.146 264.505 248.5C264.553 248.72 264.606 248.939 264.653 249.159C264.795 249.782 264.979 250.602 265.174 251.421C265.358 252.181 265.565 252.947 265.742 253.623C265.843 253.992 265.95 254.413 266.074 254.823C266.192 255.238 266.329 255.642 266.453 256.016C266.613 256.497 266.802 256.972 266.986 257.429C267.075 257.649 267.157 257.868 267.246 258.082C267.4 258.48 267.548 258.884 267.696 259.281C267.726 259.584 267.755 259.881 267.791 260.184C267.826 260.481 267.868 260.777 267.903 261.074C267.939 261.377 267.968 261.686 268.01 261.989C268.081 262.499 268.14 263.004 268.176 263.52C268.176 263.55 268.182 263.574 268.182 263.603C268.182 263.58 268.176 263.55 268.176 263.526C268.205 263.918 268.241 264.304 268.288 264.69C268.324 265.011 268.359 265.331 268.43 265.646C268.507 265.99 268.845 266.228 269.194 266.156C269.366 266.121 269.514 266.02 269.608 265.871C269.668 265.782 269.709 265.658 269.715 265.539C269.91 265.42 270.064 265.242 270.1 265.016C270.153 264.666 270.194 264.322 270.224 263.954C270.236 263.752 270.248 263.544 270.254 263.342C270.26 263.206 270.266 263.069 270.271 262.933C270.289 262.582 270.307 262.238 270.331 261.888C270.342 261.727 270.348 261.567 270.36 261.407C270.372 261.229 270.378 261.051 270.39 260.872C270.449 260.249 270.538 259.62 270.621 259.008L270.633 258.925C270.704 258.409 270.757 257.88 270.816 257.37C270.84 257.156 270.863 256.942 270.887 256.734L270.958 256.099C271.011 255.63 271.065 255.155 271.118 254.686C271.13 254.567 271.142 254.455 271.154 254.336C271.177 254.075 271.207 253.808 271.242 253.54C271.266 253.386 271.29 253.232 271.313 253.077C271.349 252.858 271.379 252.644 271.408 252.424L271.438 252.199C271.473 251.908 271.509 251.617 271.544 251.326C271.58 251.029 271.598 250.72 271.621 250.429C271.627 250.311 271.639 250.192 271.645 250.073C271.698 249.361 271.686 248.636 271.68 247.936V247.865C271.669 247.057 271.651 246.244 271.633 245.478C271.621 245.033 271.615 244.582 271.609 244.136C271.603 243.822 271.598 243.507 271.592 243.192C271.562 241.583 271.521 240.129 271.39 238.645L271.384 238.603C271.319 237.861 271.254 237.095 271.159 236.341C271.071 235.611 270.964 234.786 270.846 233.978C270.816 233.776 270.786 233.574 270.757 233.373C270.68 232.838 270.597 232.286 270.502 231.752C270.425 231.318 270.337 230.82 270.23 230.327C270.165 230.012 270.094 229.698 270.029 229.389L270.005 229.276C269.845 228.54 269.668 227.744 269.466 226.949C269.324 226.385 269.158 225.815 268.993 225.263C268.939 225.079 268.886 224.895 268.827 224.711C268.809 224.627 268.785 224.55 268.768 224.467C268.691 224.2 268.614 223.927 268.507 223.672C268.43 223.488 268.359 223.327 268.264 223.167C268.193 223.054 268.063 222.93 267.909 222.84C267.785 222.769 267.643 222.734 267.501 222.734C267.489 222.734 267.471 222.734 267.459 222.734C267.305 222.74 267.14 222.793 267.015 222.876C266.879 222.971 266.802 223.066 266.713 223.209C266.654 223.309 266.613 223.428 266.577 223.541C266.565 223.577 266.554 223.612 266.542 223.648C266.406 224.058 266.269 224.479 266.145 224.883C266.056 225.168 265.967 225.453 265.873 225.738C265.63 226.486 265.423 227.252 265.221 228L265.21 228.041C265.014 228.766 264.825 229.49 264.635 230.22C264.422 231.039 264.245 231.876 264.097 232.589C264.026 232.927 263.978 233.272 263.937 233.568C263.866 234.067 263.812 234.483 263.765 234.881C263.664 235.7 263.599 236.525 263.558 237.327C263.522 238.128 263.511 238.858 263.522 239.547L263.552 240.865Z" fill="#586386"/>
<path d="M275.688 245.062L275.771 245.656L275.777 245.704C275.913 246.665 276.055 247.657 276.238 248.619C276.321 249.064 276.422 249.509 276.517 249.943L276.528 250.002C276.611 250.376 276.694 250.75 276.765 251.118C276.765 251.142 276.765 251.166 276.765 251.189V251.219C276.771 251.367 276.818 251.51 276.901 251.635C276.913 251.652 276.925 251.664 276.937 251.682C276.919 251.819 276.961 251.967 277.055 252.098C276.931 252.341 276.818 252.59 276.724 252.84C276.617 252.935 276.511 253.03 276.404 253.125C276.25 253.267 276.191 253.528 276.197 253.713C276.203 253.813 276.226 253.914 276.268 254.009C276.203 254.164 276.191 254.294 276.232 254.425C276.274 254.562 276.374 254.674 276.499 254.74C276.57 254.775 276.653 254.793 276.742 254.793C276.961 254.793 277.15 254.68 277.227 254.502L277.245 254.467H277.263H277.28C277.422 254.419 277.541 254.342 277.641 254.229C277.712 254.164 277.783 254.104 277.849 254.039C278.322 253.635 278.837 253.261 279.275 252.947C279.749 252.608 280.252 252.258 280.915 251.813C281.472 251.439 282.046 251.071 282.579 250.726C282.798 250.584 283.017 250.447 283.236 250.305C283.615 250.067 284.006 249.818 284.385 249.569L284.805 249.29C285.249 248.999 285.705 248.696 286.149 248.387C286.741 247.977 287.321 247.55 287.877 247.128C289.168 246.167 290.346 245.104 291.329 244.19C291.797 243.75 292.282 243.275 292.898 242.634C293.454 242.058 293.934 241.542 294.36 241.055C294.567 240.817 294.81 240.538 295.047 240.248L295.159 240.111C295.349 239.885 295.538 239.648 295.71 239.405C296.166 238.763 296.58 238.087 296.983 237.428L297.018 237.368C297.379 236.78 297.729 236.163 298.048 235.54C298.273 235.106 298.492 234.667 298.705 234.233C298.812 234.02 298.919 233.806 299.025 233.592C299.635 232.381 300.274 231.075 300.837 229.727C301.263 228.706 301.577 227.851 301.82 227.026L301.867 226.866C301.979 226.492 302.098 226.1 302.187 225.708C302.21 225.613 302.228 225.512 302.246 225.399C302.258 225.322 302.269 225.245 302.275 225.162C302.299 225.073 302.305 224.984 302.281 224.901C302.275 224.752 302.228 224.616 302.145 224.491C302.027 224.307 301.831 224.176 301.618 224.129C301.559 224.117 301.506 224.111 301.447 224.111C301.293 224.111 301.133 224.158 300.973 224.248C300.878 224.301 300.801 224.384 300.724 224.461C300.695 224.491 300.665 224.521 300.635 224.544L300.718 224.479C300.535 224.633 300.357 224.8 300.18 224.96L299.913 225.203C299.724 225.37 299.528 225.53 299.339 225.69C299.126 225.868 298.913 226.046 298.705 226.23L298.688 226.242L298.676 226.254L298.664 226.266L298.599 226.325L298.593 226.331L298.587 226.337C298.113 226.753 297.61 227.21 296.965 227.816C296.823 227.952 296.681 228.083 296.533 228.219C296.16 228.57 295.775 228.926 295.408 229.294C295.118 229.579 294.828 229.876 294.55 230.161C294.342 230.374 294.135 230.588 293.928 230.796C293.454 231.271 292.963 231.776 292.371 232.399C291.37 233.45 290.394 234.536 289.476 235.629C288.481 236.804 287.593 237.908 286.747 239.001C286.628 239.155 286.504 239.31 286.386 239.464C286.072 239.862 285.752 240.277 285.45 240.693C285.142 241.12 284.817 241.542 284.509 241.957C284.367 242.147 284.225 242.337 284.083 242.527C283.224 243.667 282.342 244.843 281.448 246.012C281.217 246.309 280.98 246.606 280.75 246.891C280.542 247.146 280.329 247.413 280.122 247.675C279.891 247.972 279.66 248.268 279.435 248.571C279.642 248.061 279.838 247.508 280.009 246.944C280.365 245.787 280.637 244.582 280.898 243.418C280.974 243.085 281.051 242.753 281.128 242.42C281.336 241.53 281.484 240.841 281.614 240.176C281.75 239.44 281.874 238.698 281.993 237.997C282.23 236.561 282.395 235.011 282.496 233.26L282.531 232.678C282.567 232.102 282.603 231.514 282.626 230.938L282.638 230.665V230.612C282.65 230.368 282.662 230.125 282.668 229.876C282.674 229.49 282.674 229.104 282.679 228.718V228.676C282.679 228.023 282.679 227.281 282.626 226.551C282.573 225.803 282.502 225.043 282.413 224.289C282.366 223.885 282.324 223.517 282.265 223.149L282.247 223.019C282.194 222.668 282.141 222.306 282.028 221.968C281.975 221.825 281.904 221.683 281.809 221.522C281.72 221.368 281.566 221.226 281.353 221.107C281.241 221.036 281.093 221 280.945 221C280.821 221 280.696 221.024 280.59 221.071C280.4 221.154 280.329 221.214 280.169 221.35C280.081 221.433 279.998 221.517 279.915 221.617C279.755 221.813 279.619 222.045 279.494 222.247L279.483 222.265C279.382 222.431 279.293 222.591 279.21 222.74C279.068 223.001 278.879 223.351 278.707 223.707C278.547 224.046 278.387 224.378 278.222 224.711C278.044 225.079 277.872 225.447 277.718 225.797C277.594 226.082 277.446 226.414 277.322 226.747C277.008 227.578 276.747 228.344 276.517 229.098C276.333 229.709 276.179 230.38 276.019 231.271C275.777 232.666 275.634 234.085 275.498 235.462L275.451 235.961C275.267 237.784 275.214 239.268 275.279 240.628C275.374 242.361 275.504 243.768 275.688 245.062Z" fill="#586386"/>
<path d="M306.964 245.852C306.869 245.525 306.615 245.282 306.307 245.217C306.254 245.205 306.2 245.199 306.141 245.199C305.999 245.199 305.845 245.235 305.668 245.312C305.508 245.377 305.348 245.448 305.194 245.514C304.797 245.686 304.395 245.876 304.004 246.054C303.749 246.173 303.495 246.291 303.246 246.404C302.583 246.701 301.956 246.998 301.198 247.36C300.553 247.669 299.801 248.025 299.072 248.399C298.475 248.708 297.776 249.07 297.095 249.444C296.758 249.628 296.426 249.818 296.095 250.008C295.793 250.18 295.491 250.352 295.189 250.518C294.703 250.786 294.206 251.071 293.732 251.338L293.164 251.658L293.052 251.724C292.466 252.056 291.862 252.395 291.281 252.757L291.11 252.864C290.53 253.226 289.926 253.6 289.34 253.98C288.7 254.395 288.079 254.823 287.504 255.226C287.013 255.571 286.528 255.915 286.042 256.259L285.604 256.574L285.462 256.675C284.953 257.037 284.432 257.411 283.923 257.791C282.774 258.652 281.596 259.59 280.418 260.593C279.133 261.686 277.985 262.689 276.913 263.657L276.54 263.989C276.096 264.387 275.634 264.803 275.196 265.224C275.001 265.414 274.806 265.61 274.616 265.8C274.539 265.883 274.456 265.96 274.379 266.044L274.178 266.245C273.994 266.429 273.805 266.619 273.621 266.809C273.349 267.094 273.13 267.332 272.929 267.557C272.864 267.629 272.805 267.694 272.739 267.765C272.574 267.943 272.408 268.133 272.248 268.323C271.798 268.858 271.348 269.416 270.869 270.033C270.407 270.621 269.986 271.226 269.619 271.832C269.347 272.283 269.104 272.794 268.891 273.388C268.868 273.405 268.844 273.429 268.82 273.453C268.725 273.56 268.666 273.684 268.637 273.821C268.589 274.035 268.631 274.26 268.755 274.438C268.903 274.664 269.164 274.801 269.436 274.801C269.519 274.801 269.602 274.789 269.685 274.759C269.821 274.711 269.927 274.646 270.046 274.581C270.081 274.563 270.111 274.539 270.146 274.521C270.602 274.296 271.028 274.017 271.425 273.756C271.496 273.708 271.561 273.667 271.632 273.619C271.739 273.548 271.851 273.477 271.958 273.405C272.047 273.346 272.13 273.281 272.218 273.221C272.307 273.156 272.39 273.097 272.479 273.037C272.97 272.699 273.479 272.366 273.983 272.04C274.148 271.933 274.314 271.826 274.48 271.719C274.859 271.476 275.25 271.221 275.646 270.989C276.096 270.722 276.564 270.449 277.032 270.182C277.511 269.908 278.008 269.647 278.488 269.398C278.831 269.214 279.192 269.042 279.536 268.87C279.713 268.78 279.891 268.691 280.069 268.608C280.554 268.365 281.04 268.127 281.525 267.89C281.833 267.747 282.141 267.599 282.443 267.445C282.727 267.308 283.082 267.136 283.419 266.958C283.715 266.803 284.011 266.637 284.302 266.471L284.438 266.394C284.627 266.287 284.811 266.186 285 266.079C285.438 265.836 285.888 265.592 286.32 265.325C286.522 265.2 286.723 265.07 286.924 264.939C287.025 264.874 287.12 264.809 287.22 264.743L287.421 264.613C287.658 264.458 287.907 264.304 288.144 264.144C288.327 264.019 288.505 263.894 288.682 263.77C288.807 263.681 288.931 263.598 289.05 263.514L289.275 263.36C289.523 263.188 289.766 263.022 290.009 262.849C290.151 262.749 290.287 262.648 290.423 262.547C290.559 262.446 290.695 262.339 290.837 262.244L291.157 262.018C291.347 261.882 291.53 261.751 291.72 261.615C292.347 261.163 292.981 260.688 293.65 260.172C294.242 259.715 294.828 259.246 295.366 258.806C295.994 258.296 296.61 257.756 297.178 257.251L297.373 257.079C298.421 256.147 299.475 255.215 300.517 254.277C301.553 253.344 302.554 252.335 303.584 251.183C304.134 250.566 304.643 249.931 305.028 249.45C305.431 248.939 305.952 248.268 306.402 247.55C306.496 247.402 306.603 247.229 306.704 247.057C306.881 246.719 307.088 246.279 306.964 245.852Z" fill="#586386"/>
<path d="M302.809 260.641C302.732 260.522 302.625 260.427 302.495 260.362L302.46 260.35C302.329 260.303 302.246 260.267 302.116 260.267C302.104 260.267 302.092 260.267 302.075 260.267C301.974 260.273 301.868 260.297 301.785 260.332C301.66 260.386 301.542 260.451 301.441 260.504C301.364 260.546 301.293 260.587 301.216 260.629C301.151 260.665 301.092 260.7 301.027 260.736C300.82 260.849 300.612 260.967 300.411 261.086L300.174 261.223C300.003 261.324 299.825 261.419 299.653 261.52C299.505 261.603 299.357 261.692 299.203 261.775C299.055 261.858 298.901 261.941 298.753 262.024C298.594 262.113 298.44 262.196 298.28 262.285C297.842 262.535 297.41 262.79 296.971 263.045C296.752 263.17 296.539 263.301 296.32 263.425C295.787 263.734 295.16 264.108 294.55 264.488L294.088 264.779C293.579 265.1 293.058 265.432 292.537 265.753C291.993 266.085 291.377 266.465 290.785 266.857C289.755 267.54 288.405 268.448 287.097 269.41C285.871 270.312 284.675 271.203 283.574 272.188C282.988 272.711 282.408 273.227 281.834 273.762C281.307 274.248 280.797 274.771 280.306 275.275L280.223 275.365C279.057 276.564 278.145 277.573 277.37 278.535L277.334 278.582C277.109 278.867 276.872 279.158 276.647 279.455C276.411 279.77 276.18 280.084 275.943 280.399C275.736 280.678 275.517 280.987 275.268 281.337C275.031 281.675 274.806 282.02 274.564 282.394C274.202 282.958 273.853 283.54 273.51 284.104L273.403 284.282C273.101 284.786 272.817 285.315 272.539 285.825L272.397 286.093C271.698 287.387 270.964 288.776 270.289 290.183C269.993 290.806 269.703 291.448 269.425 292.065L269.366 292.196C269.318 292.303 269.265 292.415 269.218 292.522C269.129 292.718 269.04 292.908 268.957 293.104C268.916 293.205 268.868 293.3 268.827 293.401C268.726 293.621 268.626 293.852 268.537 294.078L268.412 294.392C268.182 294.968 267.945 295.568 267.732 296.162C267.524 296.743 267.317 297.337 267.116 297.913L266.926 298.465C266.589 299.439 266.21 300.573 265.973 301.725L265.961 301.778C265.849 302.336 265.731 302.918 265.66 303.494C265.636 303.684 265.618 303.856 265.606 304.01C265.559 304.212 265.523 304.414 265.506 304.628C265.5 304.663 265.5 304.705 265.5 304.74C265.5 304.758 265.5 304.776 265.5 304.788C265.506 304.776 265.506 304.77 265.506 304.758C265.5 304.942 265.541 305.091 265.636 305.227C265.671 305.512 265.902 305.72 266.181 305.72H266.204C266.34 305.714 266.471 305.655 266.565 305.554C266.849 305.459 267.063 305.227 267.116 304.948C267.128 304.877 267.134 304.806 267.14 304.74C267.163 304.568 267.211 304.396 267.252 304.224C267.276 304.135 267.299 304.046 267.317 303.951L267.359 303.767C267.418 303.5 267.477 303.227 267.56 302.965C267.743 302.479 267.962 302.004 268.223 301.499C268.483 301.006 268.774 300.502 269.135 299.902C269.289 299.653 269.443 299.403 269.602 299.154C269.786 298.869 269.969 298.572 270.147 298.275C270.413 297.83 270.763 297.248 271.136 296.684C271.479 296.191 271.858 295.669 272.343 295.034C272.539 294.772 272.752 294.523 272.959 294.28L272.983 294.25C273.089 294.125 273.196 293.995 273.303 293.87C273.439 293.71 273.575 293.543 273.711 293.383C274.167 292.843 274.64 292.285 275.108 291.715L275.268 291.519C275.428 291.323 275.594 291.121 275.765 290.925L275.949 290.717C276.126 290.516 276.304 290.314 276.476 290.106C276.89 289.613 277.322 289.132 277.719 288.693C278.163 288.206 278.595 287.731 279.027 287.274C280.129 286.104 280.999 285.244 281.839 284.472C282.295 284.086 282.828 283.629 283.379 283.189C283.817 282.839 284.273 282.501 284.711 282.174L285.072 281.901C285.397 281.658 285.723 281.402 286.043 281.153C286.315 280.939 286.587 280.726 286.866 280.518C287.446 280.078 288.038 279.609 288.671 279.093C289.21 278.654 289.755 278.191 290.299 277.721C290.59 277.472 290.921 277.187 291.235 276.884C291.513 276.623 291.744 276.398 291.963 276.184L291.987 276.16C293.017 275.139 294.082 274.082 295.065 272.978C295.367 272.639 295.669 272.283 295.959 271.945C296.125 271.749 296.291 271.553 296.462 271.363C296.895 270.864 297.327 270.348 297.747 269.855L297.919 269.653C298.327 269.172 298.807 268.596 299.274 267.997C299.511 267.7 299.748 267.391 299.979 267.071C300.157 266.821 300.334 266.56 300.506 266.311L300.601 266.168C300.861 265.782 301.11 265.408 301.311 265.005C301.524 264.589 301.708 264.191 301.873 263.799C302.075 263.324 302.235 262.933 302.371 262.564L302.388 262.511C302.46 262.327 302.525 262.143 302.613 261.959C302.661 261.858 302.708 261.757 302.761 261.656L302.785 261.615C302.809 261.573 302.833 261.526 302.85 261.478C302.921 261.318 302.951 261.199 302.951 261.009C302.933 260.902 302.892 260.766 302.809 260.641Z" fill="#586386"/>
<path d="M244.311 275.501C244.429 275.982 244.565 276.469 244.695 276.944C244.755 277.157 244.814 277.371 244.873 277.579C245.051 278.238 245.258 278.95 245.506 279.758C245.743 280.524 245.956 281.212 246.199 281.913C246.418 282.566 246.655 283.231 246.915 283.961C247.425 285.38 247.993 286.799 248.532 288.123C249.177 289.702 249.745 291.008 250.314 292.231C250.882 293.442 251.551 294.695 252.356 296.067C252.492 296.298 252.628 296.53 252.765 296.761C252.996 297.159 253.226 297.557 253.463 297.949C253.736 298.412 253.966 298.786 254.191 299.124C254.363 299.391 254.547 299.67 254.748 299.973C255.145 300.567 255.577 301.172 256.027 301.766C256.447 302.324 256.897 302.918 257.323 303.512C257.513 303.773 257.702 304.034 257.892 304.289C258.128 304.61 258.365 304.936 258.596 305.257C258.78 305.506 258.963 305.756 259.147 306.005C259.383 306.326 259.626 306.652 259.857 306.979C259.97 307.133 260.082 307.293 260.194 307.448C260.437 307.792 260.692 308.148 260.946 308.493C261.154 308.772 261.384 309.039 261.609 309.294C261.763 309.472 261.923 309.656 262.077 309.846C262.225 310.024 262.355 310.214 262.497 310.428C262.651 310.654 262.811 310.873 262.995 311.105C263.072 311.206 263.143 311.301 263.22 311.402C263.297 311.509 263.38 311.615 263.462 311.722L263.486 311.752C263.61 311.912 263.741 312.079 263.853 312.257L263.889 312.316C263.977 312.429 264.096 312.518 264.232 312.565C264.321 312.601 264.416 312.619 264.516 312.619C264.629 312.619 264.741 312.595 264.842 312.553C265.037 312.464 265.197 312.304 265.274 312.102C265.315 311.995 265.333 311.865 265.327 311.746C265.369 311.681 265.387 311.604 265.387 311.526V311.455C265.392 311.295 265.392 311.129 265.381 310.968C265.363 310.784 265.339 310.594 265.304 310.375C265.262 310.078 265.191 309.781 265.126 309.496L265.09 309.336L265.049 309.158C264.901 308.499 264.741 307.816 264.575 307.151C264.386 306.403 264.173 305.649 263.983 304.996L263.924 304.8C263.741 304.176 263.557 303.529 263.356 302.9C263.202 302.431 263.054 301.968 262.906 301.499L262.634 300.65C262.409 299.949 262.142 299.255 261.911 298.655C261.621 297.907 261.331 297.177 261.047 296.494C260.769 295.829 260.467 295.17 260.177 294.559C259.863 293.894 259.52 293.181 259.135 292.475C258.845 291.94 258.549 291.406 258.253 290.872L258.122 290.634C257.418 289.358 256.672 288.058 255.837 286.657C254.511 284.424 252.99 282.269 251.521 280.179C251.29 279.853 251.06 279.526 250.835 279.2C250.397 278.57 249.941 277.971 249.597 277.52L249.355 277.199C248.988 276.718 248.609 276.219 248.212 275.744C247.744 275.186 247.259 274.616 246.732 274.088C246.175 273.536 245.625 273.257 245.086 273.257C245.027 273.257 244.968 273.263 244.914 273.269C244.636 273.298 244.376 273.506 244.263 273.779C244.151 274.052 244.151 274.326 244.168 274.557C244.157 274.866 244.228 275.169 244.311 275.501Z" fill="#586386"/>
<path d="M286.203 303.529C286.706 303.132 287.185 302.716 287.677 302.283C288.245 301.784 288.79 301.297 289.305 300.822C289.417 300.715 289.536 300.608 289.648 300.507C289.997 300.193 290.353 299.86 290.696 299.528C291.235 298.994 291.72 298.501 292.176 298.014C292.721 297.438 293.194 296.922 293.627 296.435C293.757 296.286 293.881 296.138 294.011 295.984C294.077 295.906 294.136 295.835 294.201 295.758L294.361 295.568C294.538 295.36 294.716 295.152 294.888 294.939C295.124 294.648 295.367 294.345 295.604 294.03C295.811 293.763 296.012 293.484 296.202 293.211L296.303 293.074C296.652 292.582 296.983 292.065 297.303 291.56L297.327 291.519L297.433 291.347C297.587 291.103 297.747 290.854 297.895 290.599C298.084 290.266 298.262 289.952 298.434 289.631C298.753 289.019 299.049 288.372 299.298 287.82C299.553 287.256 299.813 286.692 300.074 286.14C300.37 285.511 300.672 284.864 300.956 284.217C301.204 283.647 301.459 283.065 301.731 282.424C301.891 282.05 302.033 281.664 302.175 281.296C302.258 281.076 302.341 280.862 302.424 280.642C302.489 280.488 302.554 280.328 302.625 280.173L302.696 280.007L302.75 279.894C302.797 279.788 302.838 279.687 302.874 279.58C302.915 279.443 302.898 279.313 302.874 279.176L302.868 279.152C302.838 279.045 302.779 278.945 302.696 278.867C302.613 278.79 302.519 278.731 302.406 278.701C302.335 278.677 302.27 278.665 302.193 278.665C301.968 278.665 301.755 278.772 301.548 278.873L301.5 278.897C301.347 278.974 301.193 279.051 301.039 279.134C300.76 279.283 300.464 279.449 300.08 279.669C299.79 279.835 299.505 280.007 299.221 280.173C298.913 280.357 298.605 280.542 298.298 280.72C298.019 280.88 297.741 281.04 297.463 281.201C296.593 281.699 295.687 282.216 294.822 282.756C293.609 283.51 292.466 284.288 291.424 285.065C290.347 285.873 289.257 286.74 288.097 287.707L287.558 288.159C287.185 288.467 286.812 288.776 286.445 289.091C286.019 289.453 285.593 289.833 285.184 290.201L284.93 290.432C284.048 291.222 283.018 292.16 282.023 293.158C281.502 293.686 280.975 294.214 280.448 294.743C279.963 295.23 279.483 295.71 279.004 296.197C278.868 296.34 278.725 296.476 278.589 296.613C278.281 296.922 277.962 297.242 277.654 297.563C277.364 297.86 277.08 298.156 276.795 298.459L276.28 298.999C275.807 299.492 275.309 300.021 274.765 300.614C274.386 301.024 274.007 301.457 273.64 301.867L273.397 302.14C273.231 302.324 273.078 302.52 272.924 302.71L272.776 302.894L272.45 303.292L272.124 303.69L271.953 303.897C271.574 304.361 271.177 304.841 270.804 305.328C270.348 305.916 269.898 306.504 269.448 307.097C269.277 307.323 269.111 307.543 268.945 307.768L268.756 308.03C268.614 308.22 268.478 308.421 268.347 308.611C268.288 308.694 268.235 308.778 268.176 308.867C268.045 309.057 267.921 309.253 267.797 309.443C267.738 309.532 267.684 309.621 267.625 309.71C267.578 309.787 267.53 309.864 267.477 309.941L267.43 310.054C267.4 310.102 267.37 310.149 267.341 310.197C267.282 310.292 267.217 310.387 267.163 310.487L267.051 310.689C266.926 310.915 266.796 311.146 266.678 311.384C266.494 311.752 266.329 312.096 266.175 312.435C265.95 312.928 265.731 313.468 265.476 314.151C265.375 314.424 265.287 314.703 265.21 314.982C265.18 315.095 265.156 315.213 265.133 315.35C265.115 315.469 265.097 315.593 265.085 315.712C265.068 315.866 265.079 316.015 265.097 316.193C265.109 316.341 265.15 316.442 265.221 316.531C265.192 316.822 265.34 317.125 265.583 317.244C265.719 317.309 265.843 317.345 265.973 317.345C266.044 317.345 266.121 317.333 266.198 317.309C266.275 317.285 266.37 317.244 266.441 317.196C266.494 317.161 266.548 317.119 266.595 317.083C266.684 317.012 266.773 316.941 266.861 316.87L266.974 316.781C267.163 316.638 267.359 316.496 267.56 316.353C267.726 316.24 267.897 316.128 268.063 316.027C268.152 315.967 268.247 315.914 268.335 315.854C268.791 315.558 269.33 315.207 269.845 314.833C270.319 314.489 270.84 314.127 271.444 313.717C271.698 313.545 271.965 313.373 272.225 313.213C272.515 313.028 272.817 312.838 273.101 312.643C273.255 312.536 273.409 312.429 273.563 312.328C273.971 312.043 274.398 311.752 274.818 311.473C274.966 311.372 275.12 311.277 275.268 311.182C275.398 311.099 275.529 311.022 275.653 310.939C275.943 310.749 276.227 310.565 276.511 310.387C277.672 309.662 278.779 308.896 279.898 308.107C280.294 307.828 280.697 307.555 281.099 307.276C281.78 306.807 282.491 306.32 283.171 305.827L283.266 305.762C283.811 305.364 284.373 304.948 284.924 304.539C284.995 304.485 285.066 304.432 285.137 304.378L285.244 304.295L285.498 304.099L285.545 304.064C285.575 304.04 285.605 304.022 285.634 303.998C285.67 303.975 285.699 303.945 285.735 303.915L285.782 303.874L285.794 303.868L285.806 303.856L285.83 303.838L285.942 303.749L286.007 303.702L286.019 303.69L286.037 303.678L286.055 303.666L286.066 303.654L286.102 303.624L286.132 303.601L286.149 303.589L286.12 303.607L286.155 303.583L286.203 303.529Z" fill="#586386"/>
<path d="M304.33 299.771C304.194 299.641 304.034 299.575 303.803 299.558C303.785 299.558 303.767 299.558 303.756 299.558C303.637 299.558 303.507 299.587 303.388 299.617C303.217 299.658 303.051 299.706 302.885 299.759L302.85 299.771C302.554 299.86 302.264 299.967 301.979 300.068L301.843 300.122C301.198 300.359 300.559 300.644 299.937 300.917L299.842 300.959L299.315 301.19C298.137 301.713 296.918 302.253 295.734 302.817C295.153 303.09 294.561 303.357 293.993 303.618L293.744 303.731C293.158 303.998 292.566 304.277 291.998 304.551L291.749 304.669C290.299 305.358 289.026 305.999 287.854 306.623C286.688 307.246 285.45 307.952 284.083 308.778C283.088 309.371 282.099 310.012 281.14 310.63C280.898 310.784 280.655 310.945 280.418 311.099C279.802 311.491 279.193 311.9 278.654 312.263C278.062 312.654 277.458 313.064 276.854 313.486L276.7 313.592C275.54 314.4 274.344 315.243 273.225 316.145C272.177 316.994 270.958 318.01 269.791 319.09C269.235 319.613 268.696 320.165 268.246 320.634C268.039 320.847 267.838 321.085 267.583 321.411C267.34 321.72 267.104 322.041 266.89 322.361C266.648 322.718 266.452 323.068 266.292 323.424C266.221 323.578 266.21 323.697 266.245 323.828C266.257 323.863 266.269 323.899 266.287 323.935C266.292 324.386 266.654 324.742 267.092 324.742C267.287 324.742 267.453 324.689 267.654 324.623C267.713 324.605 267.773 324.588 267.832 324.57C267.915 324.546 267.997 324.522 268.074 324.493C268.542 324.315 268.998 324.125 269.418 323.941L269.436 323.935C270.01 323.691 270.573 323.495 271.106 323.311C271.846 323.062 272.497 322.854 273.101 322.682L273.379 322.599C273.941 322.433 274.522 322.266 275.096 322.118C275.344 322.053 275.599 321.987 275.848 321.922C276.298 321.809 276.759 321.69 277.209 321.566C277.636 321.447 278.074 321.34 278.5 321.233C278.743 321.174 278.985 321.109 279.234 321.049C279.873 320.883 280.554 320.687 281.324 320.438C281.928 320.242 282.573 320.004 283.236 319.731L283.579 319.589C284.166 319.345 284.769 319.096 285.35 318.829L285.634 318.698C286.847 318.14 288.102 317.564 289.269 316.882C289.6 316.686 289.938 316.49 290.263 316.288C290.512 316.133 290.767 315.973 291.009 315.813L291.169 315.712C291.27 315.647 291.365 315.575 291.459 315.51C291.507 315.474 291.554 315.439 291.601 315.403L291.637 315.374C291.755 315.29 291.868 315.207 291.986 315.124C292.318 314.875 292.649 314.631 292.975 314.382C293.537 313.955 294.088 313.48 294.615 313.028L294.745 312.916C295.195 312.53 295.669 312.096 296.243 311.556C296.853 310.98 297.403 310.446 297.93 309.929C298.421 309.443 298.889 308.914 299.304 308.451C299.576 308.148 299.842 307.846 300.109 307.537C300.334 307.276 300.547 307.002 300.754 306.735C301.281 306.053 301.772 305.364 302.145 304.835L302.234 304.711C302.601 304.188 302.986 303.642 303.323 303.09L303.454 302.876C303.602 302.639 303.75 302.401 303.886 302.158L303.957 302.033C304.034 301.897 304.111 301.766 304.182 301.63C304.318 301.38 304.419 301.172 304.49 300.971C304.525 300.881 304.561 300.769 304.584 300.644C304.614 300.46 304.614 300.317 304.567 300.133C304.525 299.979 304.419 299.86 304.33 299.771Z" fill="#586386"/>
<path d="M266.239 320.509C266.162 320.295 266.056 320.087 265.967 319.933C265.795 319.618 265.57 319.345 265.393 319.138C265.18 318.888 264.937 318.621 264.641 318.295C264.38 318.015 264.126 317.725 263.877 317.446C263.676 317.22 263.475 316.988 263.267 316.763C263.066 316.543 262.871 316.323 262.669 316.104C262.427 315.837 262.184 315.569 261.935 315.302C261.622 314.958 261.302 314.62 260.988 314.287C260.822 314.115 260.663 313.943 260.503 313.771C260.041 313.278 259.544 312.749 259.034 312.227C258.792 311.978 258.543 311.734 258.294 311.491C258.069 311.271 257.85 311.051 257.631 310.832C257.134 310.327 256.601 309.828 256.145 309.407C255.607 308.902 255.157 308.487 254.683 308.059C254.482 307.881 254.281 307.703 254.079 307.525C253.771 307.258 253.458 306.985 253.156 306.7C252.925 306.48 252.694 306.26 252.457 306.047L252.28 305.863C251.907 305.483 251.51 305.109 251.125 304.746L250.794 304.432C250.308 303.969 249.793 303.482 249.272 303.013C248.798 302.591 248.307 302.164 247.833 301.76L247.751 301.689C247.176 301.196 246.596 300.68 246.04 300.187C245.572 299.771 245.092 299.344 244.613 298.928C244.512 298.845 244.418 298.756 244.323 298.667C244.187 298.542 244.045 298.418 243.902 298.299C243.595 298.044 243.31 297.812 243.038 297.592C242.476 297.147 241.961 296.749 241.469 296.387C241.256 296.233 241.049 296.079 240.836 295.93C240.765 295.883 240.7 295.835 240.629 295.782C240.445 295.651 240.256 295.52 240.066 295.402C239.853 295.271 239.64 295.14 239.403 295.034C239.261 294.968 239.054 294.885 238.847 294.885C238.805 294.885 238.764 294.891 238.728 294.897C238.61 294.909 238.503 294.945 238.408 295.01C238.284 295.087 238.219 295.176 238.142 295.289C238.03 295.473 237.988 295.716 238.03 296.001C238.089 296.435 238.272 296.838 238.45 297.236C238.539 297.426 238.633 297.622 238.722 297.806L238.781 297.925C239.036 298.447 239.297 298.964 239.551 299.48C239.741 299.86 239.924 300.24 240.114 300.626C240.552 301.523 241.007 302.449 241.469 303.357C241.742 303.897 242.038 304.438 242.316 304.96L242.422 305.156C242.742 305.75 243.056 306.332 243.411 306.896C243.843 307.578 244.24 308.184 244.625 308.748C244.962 309.241 245.335 309.722 245.69 310.185L245.838 310.381C246.17 310.814 246.537 311.235 246.892 311.645L247.147 311.936C247.685 312.554 248.248 313.123 248.68 313.551C249.183 314.05 249.675 314.501 250.172 314.922C250.669 315.344 251.226 315.759 251.924 316.217C252.534 316.62 253.185 316.988 253.748 317.303C254.334 317.63 254.944 317.95 255.547 318.259C256.092 318.538 256.666 318.793 257.318 319.043C257.643 319.167 257.975 319.292 258.294 319.405C258.579 319.512 258.869 319.613 259.153 319.725C259.431 319.832 259.709 319.951 259.982 320.064C260.307 320.2 260.651 320.343 260.988 320.467C261.29 320.574 261.645 320.705 262.006 320.806C262.125 320.841 262.243 320.871 262.362 320.901C262.545 320.948 262.729 321.002 262.906 321.055C263.096 321.115 263.291 321.168 263.481 321.227C263.753 321.328 264.031 321.423 264.309 321.518C264.552 321.601 264.759 321.649 264.972 321.673L265.026 321.679C265.156 321.696 265.292 321.708 265.428 321.708C265.671 321.708 265.849 321.655 265.985 321.548C266.18 321.394 266.287 321.227 266.322 321.02C266.334 320.865 266.31 320.699 266.239 320.509Z" fill="#586386"/>
<path d="M266.251 309.757C266.245 309.769 266.245 309.781 266.239 309.793C266.221 309.846 266.203 309.906 266.18 309.959C266.203 309.888 266.227 309.823 266.251 309.757Z" fill="#586386"/>
<path d="M267.08 285.837C267.074 285.849 267.068 285.861 267.068 285.873C267.062 285.884 267.056 285.896 267.056 285.914C267.062 285.89 267.068 285.867 267.08 285.837Z" fill="#586386"/>
<path d="M278.541 250.976C278.429 250.875 278.281 250.821 278.133 250.821C278.121 250.821 278.115 250.821 278.103 250.821C277.931 250.827 277.789 250.91 277.671 251.029C277.476 251.225 277.268 251.409 277.091 251.623C276.872 251.89 276.706 252.199 276.534 252.495C276.38 252.763 276.238 253.036 276.073 253.297C275.913 253.552 275.753 253.802 275.587 254.057C275.344 254.413 275.09 254.757 274.841 255.108C274.587 255.464 274.302 255.796 274.042 256.153C273.491 256.895 272.935 257.625 272.426 258.397C271.958 259.097 271.538 259.833 271.105 260.552C270.892 260.908 270.679 261.264 270.502 261.632C270.324 261.995 270.17 262.375 270.01 262.749C269.856 263.099 269.691 263.437 269.548 263.787C269.383 264.203 269.229 264.625 269.104 265.058C268.98 265.468 268.885 265.883 268.785 266.299C268.684 266.708 268.619 267.118 268.548 267.534C268.477 267.955 268.394 268.371 268.341 268.792C268.287 269.22 268.258 269.653 268.252 270.087C268.246 270.484 268.258 270.882 268.246 271.28C268.24 271.678 268.211 272.075 268.222 272.467C268.234 272.835 268.252 273.203 268.228 273.572C268.193 273.916 268.134 274.254 268.086 274.599C268.033 274.996 267.974 275.388 267.92 275.786C267.802 276.588 267.577 277.365 267.388 278.149C267.287 278.553 267.216 278.956 267.133 279.366C267.092 279.556 267.056 279.746 267.009 279.936C266.961 280.144 266.902 280.346 266.855 280.553C266.671 281.325 266.494 282.097 266.298 282.869C266.186 283.314 266.056 283.759 265.908 284.193C265.783 284.555 265.671 284.923 265.546 285.285C265.535 285.309 265.529 285.339 265.517 285.362C265.387 285.713 265.262 286.063 265.144 286.419C265.037 286.74 264.948 287.066 264.854 287.393C264.682 287.975 264.54 288.58 264.445 289.18C264.374 289.637 264.345 290.106 264.321 290.569C264.303 291.008 264.291 291.448 264.291 291.893C264.291 292.297 264.309 292.694 264.321 293.098C264.333 293.514 264.345 293.929 264.356 294.351C264.392 295.675 264.463 296.999 264.587 298.323C264.617 298.667 264.676 299.011 264.729 299.35C264.783 299.688 264.824 300.033 264.883 300.371C264.99 301.03 265.132 301.689 265.268 302.342C265.316 302.609 265.351 302.882 265.398 303.155C265.452 303.482 265.499 303.802 265.523 304.135C265.558 304.646 265.54 305.168 265.499 305.679C265.452 306.183 265.357 306.682 265.268 307.181C265.215 307.466 265.15 307.751 265.085 308.035C265.025 308.279 264.943 308.516 264.866 308.754C264.872 308.748 264.872 308.736 264.877 308.73C264.824 308.884 264.771 309.045 264.718 309.199C264.688 309.288 264.652 309.377 264.623 309.472C264.647 309.407 264.67 309.342 264.694 309.276C264.57 309.627 264.422 309.965 264.309 310.321C264.214 310.63 264.155 310.945 264.114 311.265C264.06 311.681 264.001 312.108 264.019 312.53C264.037 312.975 264.108 313.438 264.226 313.871C264.321 314.228 264.416 314.584 264.546 314.934C264.599 315.083 264.658 315.225 264.712 315.374C264.777 315.564 264.824 315.754 264.872 315.949C264.96 316.329 265.067 316.709 265.168 317.083C265.274 317.481 265.392 317.879 265.505 318.277C265.535 318.384 265.558 318.49 265.582 318.597C265.635 318.918 265.665 319.244 265.688 319.571C265.706 319.838 265.718 320.099 265.706 320.361C265.677 320.64 265.647 320.913 265.6 321.192C265.535 321.566 265.464 321.94 265.404 322.314C265.28 323.074 265.156 323.828 265.073 324.594C264.978 325.466 264.895 326.345 264.889 327.218C264.889 327.639 264.919 328.061 264.937 328.482C264.954 328.928 264.972 329.373 264.996 329.818C265.014 330.24 265.025 330.661 265.025 331.089C265.031 331.498 264.984 331.914 264.96 332.323C264.907 333.184 264.86 334.045 264.795 334.906C264.759 335.322 264.724 335.743 264.694 336.159C264.664 336.562 264.647 336.972 264.617 337.376C264.575 337.875 264.522 338.367 264.475 338.866C264.451 339.127 264.427 339.388 264.398 339.644C264.38 339.84 264.356 340.036 264.345 340.231C264.339 340.297 264.339 340.356 264.339 340.421C264.339 340.57 264.362 340.718 264.404 340.861C264.528 341.288 265.025 341.52 265.44 341.383C265.86 341.247 266.067 340.813 265.979 340.398C265.979 340.332 265.979 340.261 265.985 340.196C266.05 339.531 266.115 338.872 266.18 338.207C266.257 337.417 266.292 336.622 266.352 335.826C266.387 335.399 266.429 334.971 266.458 334.544C266.488 334.105 266.511 333.665 266.541 333.226C266.571 332.822 266.588 332.418 266.618 332.015C266.648 331.581 266.671 331.16 266.665 330.726C266.653 329.913 266.606 329.1 266.571 328.292C266.553 327.906 266.529 327.521 266.529 327.135C266.529 326.749 266.553 326.363 266.577 325.983C266.636 325.27 266.701 324.558 266.813 323.851C266.938 323.092 267.056 322.326 267.198 321.566C267.257 321.257 267.287 320.942 267.322 320.628C267.346 320.402 267.358 320.177 267.358 319.945C267.358 319.743 267.334 319.535 267.322 319.333C267.287 318.841 267.222 318.342 267.098 317.861C266.985 317.451 266.861 317.048 266.754 316.638C266.677 316.347 266.588 316.068 266.517 315.777C266.44 315.457 266.375 315.136 266.269 314.827C266.18 314.578 266.079 314.329 265.996 314.079C265.949 313.937 265.913 313.794 265.872 313.646C265.831 313.492 265.783 313.337 265.748 313.183C265.688 312.821 265.653 312.459 265.671 312.096C265.718 311.58 265.795 311.075 265.955 310.576C266.05 310.315 266.15 310.06 266.245 309.799C266.31 309.615 266.369 309.431 266.434 309.247C266.535 308.962 266.63 308.677 266.707 308.386C266.784 308.065 266.855 307.739 266.914 307.412C266.973 307.103 267.032 306.795 267.074 306.486C267.127 306.124 267.151 305.756 267.169 305.394C267.186 305.043 267.204 304.699 267.192 304.349C267.18 303.963 267.133 303.571 267.068 303.191C266.985 302.722 266.926 302.259 266.831 301.79C266.748 301.398 266.665 301.012 266.594 300.62C266.529 300.24 266.47 299.86 266.417 299.48C266.352 299.023 266.275 298.566 266.227 298.109C266.15 297.266 266.085 296.417 266.056 295.574C266.026 294.743 266.002 293.912 265.979 293.074C265.955 292.237 265.931 291.406 265.973 290.563C265.985 290.349 265.996 290.136 266.014 289.922C266.073 289.304 266.209 288.693 266.369 288.093C266.529 287.488 266.725 286.894 266.92 286.3C266.973 286.158 267.021 286.021 267.074 285.879C267.192 285.546 267.299 285.208 267.411 284.875C267.553 284.466 267.684 284.05 267.808 283.635C268.021 282.881 268.205 282.115 268.376 281.349C268.418 281.159 268.459 280.963 268.507 280.773C268.56 280.559 268.625 280.346 268.666 280.126C268.749 279.728 268.826 279.33 268.909 278.933C269.069 278.131 269.306 277.347 269.472 276.546C269.59 275.952 269.643 275.353 269.738 274.753C269.833 274.13 269.916 273.5 269.892 272.865C269.88 272.562 269.868 272.265 269.874 271.963C269.88 271.666 269.892 271.363 269.898 271.066C269.904 270.514 269.886 269.962 269.921 269.41C269.957 269.059 270.01 268.709 270.069 268.365C270.146 267.949 270.206 267.534 270.283 267.118C270.365 266.691 270.478 266.269 270.579 265.842C270.656 265.497 270.768 265.165 270.881 264.832C271.064 264.328 271.289 263.847 271.496 263.354C271.615 263.075 271.727 262.796 271.846 262.517C271.958 262.25 272.094 261.989 272.236 261.733C272.378 261.472 272.526 261.211 272.68 260.95C272.84 260.677 272.982 260.403 273.136 260.13C273.438 259.596 273.746 259.068 274.089 258.557C274.397 258.106 274.711 257.661 275.019 257.215C275.19 256.966 275.362 256.723 275.546 256.485C275.735 256.236 275.907 255.98 276.084 255.719C276.451 255.179 276.807 254.639 277.144 254.087C277.458 253.57 277.701 253.006 278.02 252.495C278.204 252.264 278.411 252.062 278.618 251.854C278.837 251.605 278.784 251.189 278.541 250.976Z" fill="#586386"/>
<path d="M248.23 327.574H280.934L277.642 356H255.305L248.23 327.574Z" fill="#F29430"/>
</g>
<defs>
<clipPath id="clip0">
<rect width="201.6" height="237.32" fill="white" transform="translate(62 102)"/>
</clipPath>
<clipPath id="clip1">
<rect width="69" height="135" fill="white" transform="translate(238 221)"/>
</clipPath>
</defs>
</svg>
