<svg width="22" height="22" viewBox="0 0 22 22" fill="none" xmlns="http://www.w3.org/2000/svg">
<path d="M18.0046 18.5292L18.0046 18.5292L16.5242 13.7171L20.4267 10.7473C21.1388 10.2054 21.4191 9.29132 21.1483 8.42644C20.8771 7.56007 20.1285 6.98766 19.2388 6.98766H14.4259L12.9078 2.18339C12.6348 1.31949 11.8877 0.75 11.0005 0.75L10.9921 0.750043C10.1014 0.753688 9.35468 1.33011 9.08741 2.19893L7.61426 6.98766H2.7612C1.86934 6.98766 1.12013 7.56206 0.850255 8.4312C0.580794 9.29887 0.864787 10.2136 1.58121 10.7533L5.516 13.7171L4.00035 18.5136C3.72674 19.3795 4.00596 20.2955 4.71902 20.839C5.07592 21.111 5.49008 21.25 5.908 21.25C6.32212 21.25 6.73299 21.1134 7.08816 20.8459L11.0201 17.8843L14.9041 20.84C15.619 21.3841 16.5529 21.3867 17.2708 20.8468C17.9861 20.3089 18.2712 19.3959 18.0046 18.5292ZM19.433 9.36326L19.4329 9.36327L14.7086 12.9585L14.5698 13.0641L14.6211 13.2309L16.4109 19.049L16.4109 19.049C16.4502 19.1767 16.4271 19.2645 16.3956 19.3256C16.3605 19.3938 16.3082 19.4393 16.2845 19.4571C16.2602 19.4753 16.204 19.5111 16.135 19.5237C16.0762 19.5344 15.9967 19.5312 15.8978 19.4559L15.8978 19.4559L11.1757 15.8624L11.0251 15.7478L10.8739 15.8617L6.10091 19.4569C6.00147 19.5318 5.922 19.5345 5.86315 19.5234C5.79426 19.5105 5.73814 19.4743 5.71385 19.4558C5.69019 19.4377 5.63807 19.3918 5.60329 19.3232C5.57216 19.2619 5.5497 19.1738 5.59005 19.0462L5.35167 18.9708L5.59005 19.0461L7.42703 13.2327L7.48031 13.0641L7.33906 12.9577L2.56843 9.36433C2.56843 9.36432 2.56842 9.36432 2.56842 9.36432C2.38244 9.22421 2.41903 9.03119 2.44257 8.95539C2.45225 8.92422 2.47846 8.85763 2.52947 8.80237C2.57414 8.75397 2.64154 8.70869 2.7612 8.70869H8.65376H8.83841L8.89271 8.5322L10.6811 2.71868C10.7203 2.59131 10.7865 2.53707 10.8417 2.50884C10.9047 2.47658 10.9696 2.47121 10.9984 2.47103H10.9998C11.0294 2.47103 11.0944 2.47617 11.1574 2.50815C11.2123 2.536 11.2783 2.58968 11.3182 2.71594C11.3182 2.71594 11.3182 2.71595 11.3182 2.71595L13.1566 8.53402L13.2118 8.70869H13.395H19.2389C19.3582 8.70869 19.4256 8.7538 19.4703 8.80209C19.5213 8.85718 19.5476 8.92353 19.5573 8.95455C19.5809 9.02994 19.6179 9.22255 19.433 9.36326Z" fill="#586386" stroke="#586386" stroke-width="0.5"/>
</svg>
