<svg width="26" height="19" viewBox="0 0 26 19" fill="none" xmlns="http://www.w3.org/2000/svg">
<path d="M3.94855 15.8379L3.94853 15.8379L3.9477 15.8372C3.27644 15.3277 2.49811 14.7369 1 14.7369H0.9V14.8369V16.4007V16.5007H1C1.49063 16.5007 1.8436 16.5861 2.14392 16.7229C2.44681 16.861 2.70021 17.0529 2.9945 17.2765L2.99453 17.2765L2.99524 17.277C3.66655 17.7866 4.44469 18.3773 5.94306 18.3773C7.44166 18.3773 8.22001 17.7863 8.89126 17.2766L8.89142 17.2765L8.89144 17.2765C9.18573 17.0529 9.43917 16.861 9.74208 16.7229C10.0424 16.5861 10.3954 16.5007 10.8859 16.5007C11.3766 16.5007 11.7295 16.5861 12.0299 16.7229C12.3328 16.861 12.5862 17.0529 12.8806 17.2765L12.8806 17.2765L12.8808 17.2766C13.5521 17.7863 14.3304 18.3773 15.829 18.3773C17.3276 18.3773 18.1059 17.7865 18.7773 17.2769L18.7777 17.2765L18.7777 17.2765C19.072 17.053 19.3255 16.8611 19.6284 16.723C19.9288 16.5861 20.2818 16.5007 20.7724 16.5007C21.2631 16.5007 21.616 16.5861 21.9164 16.7229C22.2193 16.861 22.4728 17.0529 22.7671 17.2765L22.8276 17.1969L22.7672 17.2765L22.7673 17.2766C23.4386 17.7863 24.2169 18.3773 25.7157 18.3773H25.8157V18.2773V16.7135V16.6135H25.7157C25.2251 16.6135 24.872 16.5281 24.5717 16.3913C24.2687 16.2532 24.0153 16.0613 23.721 15.8379L23.721 15.8379L23.7201 15.8372C23.0489 15.3277 22.2706 14.7369 20.7724 14.7369C19.2739 14.7369 18.4956 15.3279 17.8244 15.8375L17.8239 15.8379C17.5295 16.0613 17.276 16.2532 16.9731 16.3913C16.6727 16.5281 16.3196 16.6135 15.829 16.6135C15.3385 16.6135 14.9855 16.5281 14.6851 16.3913C14.3822 16.2532 14.1288 16.0613 13.8345 15.8379C13.1632 15.328 12.3848 14.7369 10.8859 14.7369C9.38761 14.7369 8.60927 15.3279 7.93812 15.8375L7.93758 15.8379C7.64329 16.0613 7.38984 16.2532 7.08693 16.3913C6.78657 16.5281 6.4336 16.6135 5.94306 16.6135C5.45253 16.6135 5.09956 16.5281 4.7992 16.3913C4.49629 16.2532 4.24284 16.0613 3.94855 15.8379Z" fill="#586386" stroke="#586386" stroke-width="0.2"/>
<path d="M17.8239 6.61306L17.8241 6.61295C18.4953 6.10328 19.2737 5.5123 20.7724 5.5123C22.2708 5.5123 23.0492 6.10311 23.7205 6.61272L23.721 6.61306L23.721 6.61307C24.0153 6.83653 24.2687 7.02849 24.5717 7.16656C24.8721 7.30347 25.2251 7.38887 25.7157 7.38887H25.8157V7.48887V9.05267V9.15267H25.7157C24.2168 9.15267 23.4385 8.56162 22.7672 8.05171L17.8239 6.61306ZM17.8239 6.61306C17.8239 6.61306 17.8239 6.61307 17.8239 6.61307M17.8239 6.61306L17.8239 6.61307M17.8239 6.61307C17.5295 6.83653 17.276 7.02849 16.973 7.16656M17.8239 6.61307L16.973 7.16656M16.973 7.16656C16.6726 7.30347 16.3196 7.38887 15.829 7.38887C15.3385 7.38887 14.9855 7.30347 14.6852 7.16656C14.3822 7.02849 14.1288 6.83653 13.8345 6.61307L13.774 6.69271L16.973 7.16656ZM2.99452 8.0517L2.99481 8.05193C3.66622 8.56177 4.44437 9.15267 5.94306 9.15267C7.44139 9.15267 8.21973 8.5617 8.89089 8.05211L8.89142 8.0517C9.18571 7.82825 9.43916 7.63634 9.74208 7.49832C10.0424 7.36146 10.3954 7.27611 10.8859 7.27611C11.3766 7.27611 11.7295 7.36146 12.0299 7.49832C12.3328 7.63634 12.5863 7.82825 12.8807 8.05171C13.552 8.56161 14.3303 9.15267 15.829 9.15267C17.3273 9.15267 18.1056 8.56187 18.7769 8.05234L18.7777 8.05171L18.7777 8.0517C19.072 7.82825 19.3255 7.63634 19.6284 7.49832C19.9288 7.36146 20.2818 7.27611 20.7724 7.27611C21.2631 7.27611 21.616 7.36146 21.9164 7.49832C22.2193 7.63634 22.4728 7.82824 22.7671 8.05169L2.99452 8.0517Z" fill="#586386" stroke="#586386" stroke-width="0.2"/>
<path d="M13.8345 11.2254L13.774 11.305L13.8345 11.2254L13.8343 11.2252C13.1631 10.7156 12.3847 10.1246 10.8859 10.1246C9.38734 10.1246 8.609 10.7156 7.93775 11.2252L7.93758 11.2254C7.64328 11.4488 7.38983 11.6408 7.08691 11.7788C6.78656 11.9157 6.43359 12.0011 5.94306 12.0011C5.45254 12.0011 5.09957 11.9157 4.79921 11.7788C4.49629 11.6408 4.24285 11.4488 3.94855 11.2254L3.94853 11.2253L3.94807 11.225C3.27671 10.7154 2.49838 10.1246 1 10.1246H0.9V10.2246V11.7884V11.8884H1C1.49063 11.8884 1.8436 11.9737 2.14393 12.1106C2.44682 12.2486 2.70022 12.4405 2.99452 12.664L2.99453 12.664L2.99562 12.6648C3.66682 13.1743 4.44496 13.7649 5.94306 13.7649C7.44139 13.7649 8.21973 13.174 8.89088 12.6644L8.89142 12.664C9.18571 12.4405 9.43916 12.2486 9.74208 12.1106C10.0424 11.9737 10.3954 11.8884 10.8859 11.8884C11.3766 11.8884 11.7295 11.9737 12.0299 12.1106C12.3328 12.2486 12.5863 12.4405 12.8807 12.664L12.8812 12.6644C13.5523 13.174 14.3307 13.7649 15.829 13.7649C17.3273 13.7649 18.1056 13.1741 18.7769 12.6646L18.7777 12.664L18.7777 12.664C19.072 12.4405 19.3255 12.2486 19.6284 12.1106C19.9288 11.9737 20.2818 11.8884 20.7724 11.8884C21.2631 11.8884 21.6161 11.9737 21.9164 12.1106C22.2193 12.2486 22.4728 12.4405 22.7672 12.664L22.7677 12.6644C23.4388 13.174 24.2172 13.7649 25.7157 13.7649H25.8157V13.6649V12.1011V12.0011H25.7157C25.2251 12.0011 24.8721 11.9157 24.5717 11.7788C24.2687 11.6408 24.0153 11.4488 23.721 11.2254L23.721 11.2253L23.7205 11.225C23.0492 10.7154 22.2708 10.1246 20.7724 10.1246C19.2737 10.1246 18.4953 10.7156 17.8241 11.2252L17.8239 11.2254C17.5295 11.4488 17.276 11.6408 16.973 11.7788C16.6726 11.9157 16.3196 12.0011 15.829 12.0011C15.3385 12.0011 14.9855 11.9157 14.6852 11.7788C14.3822 11.6408 14.1288 11.4488 13.8345 11.2254Z" fill="#586386" stroke="#586386" stroke-width="0.2"/>
<path d="M2.99452 3.43936C2.70022 3.2159 2.44682 3.024 2.14393 2.88598C1.8436 2.74913 1.49063 2.66378 1 2.66378H0.9V2.56378V1V0.9H1C2.49869 0.9 3.27704 1.49104 3.94851 2.00092L3.94855 2.00095L2.99452 3.43936ZM2.99452 3.43936L2.99481 3.43958C3.66622 3.94942 4.44437 4.54031 5.94306 4.54031C7.44178 4.54031 8.22012 3.94925 8.89142 3.43936C9.18571 3.21591 9.43916 3.024 9.74208 2.88598C10.0424 2.74913 10.3954 2.66378 10.8859 2.66378C11.3766 2.66378 11.7295 2.74913 12.0299 2.88598C12.3328 3.024 12.5862 3.2159 12.8806 3.43935L2.99452 3.43936ZM25.8157 4.54031H25.7157C24.2168 4.54031 23.4385 3.94926 22.7672 3.43937L25.8157 4.54031ZM25.8157 4.54031V4.44031M25.8157 4.54031V4.44031M25.8157 4.44031V2.87653V2.77653M25.8157 4.44031V2.77653M25.8157 2.77653H25.7157M25.8157 2.77653H25.7157M25.7157 2.77653C25.2251 2.77653 24.872 2.69118 24.5717 2.55432C24.2687 2.4163 24.0153 2.2244 23.721 2.00095L23.721 2.00092M25.7157 2.77653L23.721 2.00092M23.721 2.00092C23.0495 1.49104 22.2711 0.9 20.7724 0.9M23.721 2.00092L20.7724 0.9M20.7724 0.9C19.2736 0.9 18.4952 1.49105 17.8239 2.00094L20.7724 0.9ZM15.829 4.54031C14.3303 4.54031 13.552 3.94926 12.8807 3.43937L15.829 4.54031ZM15.829 4.54031C17.3279 4.54031 18.1062 3.94927 18.7777 3.43938M15.829 4.54031L18.7777 3.43938M18.7777 3.43938L18.7777 3.43935M18.7777 3.43938L18.7777 3.43935M18.7777 3.43935C19.072 3.21591 19.3255 3.024 19.6284 2.88598M18.7777 3.43935L19.6284 2.88598M19.6284 2.88598C19.9288 2.74913 20.2818 2.66378 20.7724 2.66378M19.6284 2.88598L20.7724 2.66378M20.7724 2.66378C21.2631 2.66378 21.6161 2.74913 21.9164 2.88598M20.7724 2.66378L21.9164 2.88598M21.9164 2.88598C22.2193 3.024 22.4728 3.2159 22.7671 3.43935L21.9164 2.88598ZM17.8239 2.00096C17.5295 2.2244 17.276 2.41631 16.9731 2.55432C16.6727 2.69118 16.3196 2.77653 15.829 2.77653C15.3385 2.77653 14.9855 2.69118 14.6851 2.55433C14.3822 2.41631 14.1288 2.22441 13.8345 2.00096C13.1632 1.49106 12.3848 0.9 10.8859 0.9C9.38723 0.9 8.60888 1.49106 7.93758 2.00095C7.64329 2.2244 7.38984 2.4163 7.08693 2.55433C6.78657 2.69118 6.4336 2.77653 5.94306 2.77653C5.45253 2.77653 5.09956 2.69118 4.7992 2.55433C4.49629 2.41631 4.24284 2.2244 3.94855 2.00095L17.8239 2.00096Z" fill="#586386" stroke="#586386" stroke-width="0.2"/>
</svg>
