<svg width="32" height="32" viewBox="0 0 32 32" fill="none" xmlns="http://www.w3.org/2000/svg">
<path d="M24.6546 12.3061L26.6165 8.90821L23.6108 6.38611L22.9294 2.5221H19.0058L16.0001 0L12.9944 2.52204H9.07083L8.38949 6.38605L5.38379 8.90815L7.34562 12.3061L6.66428 16.1701L8.47866 16.8305V31.9999H10.4718L16.0148 26.1311L21.5748 31.9999H23.5499V16.8203L25.3361 16.1702L24.6546 12.3061ZM10.3625 29.372V17.5317L12.3131 20.9102L15.0723 19.9059V24.3855L10.3625 29.372ZM21.6659 29.357L16.9562 24.3856V19.9162L19.6871 20.9102L21.6489 17.5122L21.6659 17.5061V29.357ZM22.6803 11.9581L23.2062 14.9406L20.3603 15.9764L18.846 18.5992L16.0001 17.5634L13.1543 18.5992L11.64 15.9764L8.79409 14.9406L9.32001 11.9581L7.80573 9.33523L10.1258 7.38847L10.6517 4.40594H13.6802L16.0003 2.45924L18.3203 4.40594H21.3488L21.8748 7.38847L24.1948 9.33523L22.6803 11.9581Z" fill="#586386"/>
<path d="M14.5709 11.093L13.2614 9.56519L11.8311 10.7912L14.2893 13.6592L20.0191 9.36186L18.8887 7.85474L14.5709 11.093Z" fill="#586386"/>
</svg>
