<svg width="55" height="52" viewBox="0 0 55 52" fill="none" xmlns="http://www.w3.org/2000/svg">
<g clip-path="url(#clip0)">
<path d="M25 30.3335C24.0111 30.3335 23.0444 30.6267 22.2222 31.1761C21.3999 31.7256 20.759 32.5064 20.3806 33.4201C20.0022 34.3337 19.9031 35.339 20.0961 36.3089C20.289 37.2789 20.7652 38.1698 21.4645 38.869C22.1637 39.5683 23.0546 40.0445 24.0246 40.2374C24.9945 40.4303 25.9998 40.3313 26.9134 39.9529C27.827 39.5745 28.6079 38.9336 29.1573 38.1113C29.7068 37.2891 30 36.3224 30 35.3335C29.9987 34.0078 29.4715 32.7368 28.5341 31.7994C27.5967 30.862 26.3257 30.3348 25 30.3335ZM25 38.6668C24.3407 38.6668 23.6963 38.4713 23.1481 38.1051C22.5999 37.7388 22.1727 37.2182 21.9204 36.6091C21.6681 36 21.6021 35.3298 21.7307 34.6832C21.8593 34.0366 22.1768 33.4426 22.643 32.9765C23.1092 32.5103 23.7031 32.1928 24.3497 32.0642C24.9963 31.9356 25.6665 32.0016 26.2756 32.2539C26.8847 32.5062 27.4053 32.9334 27.7716 33.4816C28.1378 34.0298 28.3333 34.6742 28.3333 35.3335C28.3333 36.2175 27.9821 37.0654 27.357 37.6905C26.7319 38.3156 25.8841 38.6668 25 38.6668Z" fill="#000C31"/>
<path d="M49.1667 42H45.8333V4.5C45.8333 3.83696 45.5699 3.20107 45.1011 2.73223C44.6323 2.26339 43.9964 2 43.3333 2H6.66667C6.00363 2 5.36774 2.26339 4.8989 2.73223C4.43006 3.20107 4.16667 3.83696 4.16667 4.5V42H0.833333C0.61232 42 0.400358 42.0878 0.244078 42.2441C0.0877973 42.4004 0 42.6123 0 42.8333C0 43.0543 0.0877973 43.2663 0.244078 43.4226C0.400358 43.5789 0.61232 43.6667 0.833333 43.6667H17.77C19.7757 46.5228 21.9925 49.2248 24.4017 51.75C24.4794 51.8301 24.5723 51.8939 24.6751 51.9374C24.7779 51.9809 24.8884 52.0033 25 52.0033C25.1116 52.0033 25.2221 51.9809 25.3249 51.9374C25.4277 51.8939 25.5206 51.8301 25.5983 51.75C28.0075 49.2248 30.2243 46.5228 32.23 43.6667H49.1667C49.3877 43.6667 49.5996 43.5789 49.7559 43.4226C49.9122 43.2663 50 43.0543 50 42.8333C50 42.6123 49.9122 42.4004 49.7559 42.2441C49.5996 42.0878 49.3877 42 49.1667 42ZM29.1667 3.66667V19.6092L25.4625 17.14C25.3256 17.0486 25.1646 16.9999 25 16.9999C24.8354 16.9999 24.6744 17.0486 24.5375 17.14L20.8333 19.6092V3.66667H29.1667ZM25 49.9567C21.9725 46.7092 15.8333 39.3033 15.8333 35.3333C15.8333 32.9022 16.7991 30.5706 18.5182 28.8515C20.2373 27.1324 22.5688 26.1667 25 26.1667C27.4312 26.1667 29.7627 27.1324 31.4818 28.8515C33.2009 30.5706 34.1667 32.9022 34.1667 35.3333C34.1667 39.3008 28.0267 46.7083 25 49.9567ZM35.8333 35.3333C35.8333 32.4602 34.692 29.7047 32.6603 27.673C30.6287 25.6414 27.8732 24.5 25 24.5C22.1268 24.5 19.3713 25.6414 17.3397 27.673C15.308 29.7047 14.1667 32.4602 14.1667 35.3333C14.1667 37.25 15.2392 39.6383 16.6883 42H5.83333V4.5C5.83333 4.27899 5.92113 4.06702 6.07741 3.91074C6.23369 3.75446 6.44565 3.66667 6.66667 3.66667H19.1667V21.1667C19.1666 21.3175 19.2076 21.4656 19.2851 21.595C19.3626 21.7244 19.4738 21.8304 19.6069 21.9016C19.7399 21.9727 19.8897 22.0065 20.0404 21.9991C20.1911 21.9918 20.337 21.9437 20.4625 21.86L25 18.8333L29.5375 21.8583C29.6629 21.942 29.8086 21.9901 29.9592 21.9975C30.1097 22.0048 30.2594 21.9713 30.3924 21.9003C30.5254 21.8293 30.6366 21.7236 30.7143 21.5944C30.7919 21.4652 30.8331 21.3174 30.8333 21.1667V3.66667H43.3333C43.5543 3.66667 43.7663 3.75446 43.9226 3.91074C44.0789 4.06702 44.1667 4.27899 44.1667 4.5V42H33.3117C34.7608 39.6383 35.8333 37.25 35.8333 35.3333Z" fill="#000C31"/>
</g>
<defs>
<clipPath id="clip0">
<rect width="55" height="52" fill="white"/>
</clipPath>
</defs>
</svg>
