<svg width="60" height="60" viewBox="0 0 60 60" fill="none" xmlns="http://www.w3.org/2000/svg">
<path d="M13.8398 43.125H27.5977L30.9375 48.082C31.0898 53.6719 35.6602 58.125 41.25 58.125H47.8125C48.3281 58.125 48.75 57.7031 48.75 57.1875V34.6875C48.75 33.9141 48.5625 33.1641 48.1992 32.4844L41.25 19.4531V4.46484C41.25 3.03516 40.0898 1.875 38.6602 1.875H13.8398C12.4102 1.875 11.25 3.03516 11.25 4.46484V40.5352C11.25 41.9648 12.4102 43.125 13.8398 43.125ZM46.875 34.6875V56.25H41.25C36.6562 56.25 32.918 52.582 32.8125 47.9883C32.8594 47.7422 32.8125 47.4961 32.6719 47.2852L26.5898 38.2852C25.7227 36.9961 26.0742 35.25 27.375 34.3828C28.6523 33.5273 30.3867 33.8672 31.2539 35.1328C31.2539 35.1445 31.2656 35.1445 31.2656 35.1562L36.7383 42.7266C36.9141 42.9727 37.1953 43.1133 37.5 43.1133H40.3125C40.8281 43.1133 41.25 42.6914 41.25 42.1758V23.4375L46.5469 33.3633C46.7578 33.7734 46.875 34.2305 46.875 34.6875ZM13.125 4.46484C13.125 4.06641 13.4414 3.75 13.8398 3.75H38.6602C39.0586 3.75 39.375 4.06641 39.375 4.46484V41.25H37.9805L36.6211 39.375C37.1133 39.3398 37.5 38.9297 37.5 38.4375V32.8125C37.5 32.2969 37.0781 31.875 36.5625 31.875C36.0469 31.875 35.625 32.2969 35.625 32.8125V37.9922L32.7891 34.0781C31.3359 31.9453 28.4297 31.3828 26.2852 32.8359C26.2734 32.8477 26.25 32.8594 26.2383 32.8711C26.2383 32.8594 26.2383 32.8359 26.2383 32.8242V29.0742C26.2383 28.5586 25.8164 28.1367 25.3008 28.1367C24.7852 28.1367 24.3633 28.5586 24.3633 29.0742V32.8242C24.3633 33.3281 24.7734 33.75 25.2773 33.7617C23.9766 35.3672 23.8711 37.6289 25.0195 39.3516L26.3086 41.2617H13.8398C13.4414 41.2617 13.125 40.9453 13.125 40.5469V4.46484Z" fill="#000C31"/>
<path d="M29.0625 13.125H32.8125C33.3281 13.125 33.75 12.7031 33.75 12.1875V6.5625C33.75 6.04688 33.3281 5.625 32.8125 5.625H29.0625C28.5469 5.625 28.125 6.04688 28.125 6.5625V12.1875C28.125 12.7031 28.5469 13.125 29.0625 13.125ZM30 7.5H31.875V11.25H30V7.5Z" fill="#000C31"/>
<path d="M15.9375 9.375C16.4531 9.375 16.875 8.95312 16.875 8.4375V6.5625C16.875 6.04688 16.4531 5.625 15.9375 5.625C15.4219 5.625 15 6.04688 15 6.5625V8.4375C15 8.95312 15.4219 9.375 15.9375 9.375Z" fill="#000C31"/>
<path d="M15.9375 22.5C16.4531 22.5 16.875 22.0781 16.875 21.5625V12.1875C16.875 11.6719 16.4531 11.25 15.9375 11.25C15.4219 11.25 15 11.6719 15 12.1875V21.5625C15 22.0781 15.4219 22.5 15.9375 22.5Z" fill="#000C31"/>
<path d="M25.3125 11.25C25.8281 11.25 26.25 10.8281 26.25 10.3125V6.5625C26.25 6.04688 25.8281 5.625 25.3125 5.625C24.7969 5.625 24.375 6.04688 24.375 6.5625V10.3125C24.375 10.8281 24.7969 11.25 25.3125 11.25Z" fill="#000C31"/>
<path d="M25.3125 18.75C25.8281 18.75 26.25 18.3281 26.25 17.8125V14.0625C26.25 13.5469 25.8281 13.125 25.3125 13.125C24.7969 13.125 24.375 13.5469 24.375 14.0625V17.8125C24.375 18.3281 24.7969 18.75 25.3125 18.75Z" fill="#000C31"/>
<path d="M25.3125 26.25C25.8281 26.25 26.25 25.8281 26.25 25.3125V21.5625C26.25 21.0469 25.8281 20.625 25.3125 20.625C24.7969 20.625 24.375 21.0469 24.375 21.5625V25.3125C24.375 25.8281 24.7969 26.25 25.3125 26.25Z" fill="#000C31"/>
<path d="M36.5625 13.125C37.0781 13.125 37.5 12.7031 37.5 12.1875V6.5625C37.5 6.04688 37.0781 5.625 36.5625 5.625C36.0469 5.625 35.625 6.04688 35.625 6.5625V12.1875C35.625 12.7031 36.0469 13.125 36.5625 13.125Z" fill="#000C31"/>
<path d="M17.8125 39.375C16.2656 39.375 15 38.1094 15 36.5625V32.8125C15 31.2656 16.2656 30 17.8125 30C19.3594 30 20.625 31.2656 20.625 32.8125V36.5625C20.625 38.1094 19.3594 39.375 17.8125 39.375ZM17.8125 31.875C17.2969 31.875 16.875 32.2969 16.875 32.8125V36.5625C16.875 37.0781 17.2969 37.5 17.8125 37.5C18.3281 37.5 18.75 37.0781 18.75 36.5625V32.8125C18.75 32.2969 18.3281 31.875 17.8125 31.875Z" fill="#000C31"/>
</svg>
