<svg width="60" height="60" viewBox="0 0 60 60" fill="none" xmlns="http://www.w3.org/2000/svg">
<path d="M48.4345 52.209L38.4951 34.9032C41.3277 33.2422 43.5475 30.7099 44.823 27.6841C46.0986 24.6583 46.3617 21.3011 45.5731 18.1136C44.7845 14.926 42.9864 12.0788 40.4471 9.99678C37.9078 7.91479 34.7634 6.7096 31.4831 6.56101C28.2027 6.41242 24.9623 7.32841 22.2452 9.1723C19.528 11.0162 17.4799 13.6892 16.4063 16.7924C15.3327 19.8956 15.2913 23.2628 16.2881 26.3916C17.2849 29.5203 19.2666 32.2429 21.9374 34.1532L11.5654 52.209C11.4746 52.3675 11.4392 52.5518 11.465 52.7326C11.4908 52.9135 11.5762 53.0806 11.7077 53.2074C11.8392 53.3342 12.0092 53.4135 12.1909 53.4327C12.3726 53.4519 12.5555 53.4099 12.7106 53.3133L17.8073 50.1404L19.3443 53.0049C19.4135 53.1339 19.5159 53.2421 19.6409 53.3181C19.766 53.3942 19.9091 53.4354 20.0554 53.4376C20.2015 53.4384 20.3453 53.4007 20.4722 53.3284C20.5992 53.2561 20.7049 53.1516 20.7787 53.0255L29.9915 36.9844H30.0089L39.2212 53.0246C39.293 53.1499 39.3966 53.2541 39.5215 53.3266C39.6465 53.3991 39.7883 53.4374 39.9328 53.4376H39.9445C40.0908 53.4354 40.2339 53.3942 40.359 53.3181C40.484 53.2421 40.5864 53.1339 40.6556 53.0049L42.1926 50.1404L47.2893 53.3133C47.4444 53.4099 47.6273 53.4519 47.809 53.4327C47.9907 53.4135 48.1607 53.3342 48.2922 53.2074C48.4237 53.0806 48.5091 52.9135 48.5349 52.7326C48.5607 52.5518 48.5253 52.3675 48.4345 52.209ZM17.2092 21.7843C17.209 19.0981 18.0054 16.4723 19.4976 14.2387C20.9898 12.0052 23.1108 10.2643 25.5925 9.23628C28.0741 8.20823 30.8048 7.93917 33.4394 8.46313C36.0739 8.98709 38.494 10.2805 40.3934 12.1799C42.2928 14.0793 43.5863 16.4992 44.1104 19.1337C44.6344 21.7683 44.3655 24.499 43.3375 26.9807C42.3095 29.4624 40.5687 31.5835 38.3353 33.0758C36.1018 34.5681 33.4759 35.3645 30.7898 35.3644C27.1893 35.3603 23.7375 33.9283 21.1915 31.3824C18.6456 28.8365 17.2134 25.3848 17.2092 21.7843ZM20.0915 50.9279L18.8395 48.594C18.7864 48.4952 18.7136 48.4083 18.6256 48.3388C18.5377 48.2692 18.4364 48.2184 18.328 48.1895C18.2197 48.1606 18.1065 48.1542 17.9956 48.1707C17.8847 48.1872 17.7783 48.2263 17.6831 48.2855L14.6132 50.1966L23.3193 35.0382C24.8382 35.8984 26.4948 36.4888 28.2154 36.7829L20.0915 50.9279ZM42.3168 48.2855C42.2216 48.2263 42.1152 48.1872 42.0043 48.1707C41.8934 48.1542 41.7802 48.1606 41.6719 48.1895C41.5635 48.2184 41.4622 48.2692 41.3743 48.3388C41.2863 48.4083 41.2135 48.4952 41.1604 48.594L39.9084 50.9279L31.8871 36.9615C33.6673 36.8348 35.411 36.3938 37.0373 35.6588L45.3867 50.1966L42.3168 48.2855Z" fill="#000C31"/>
<path d="M42.4349 21.7843C42.4349 19.4811 41.752 17.2296 40.4725 15.3145C39.193 13.3994 37.3743 11.9067 35.2464 11.0253C33.1186 10.1438 30.7771 9.91312 28.5181 10.3624C26.2592 10.8117 24.1841 11.9207 22.5555 13.5493C20.9268 15.1779 19.8177 17.2529 19.3683 19.5118C18.919 21.7708 19.1495 24.1122 20.0309 26.2401C20.9123 28.368 22.4049 30.1868 24.3199 31.4664C26.235 32.746 28.4865 33.429 30.7897 33.429C33.877 33.4255 36.8369 32.1976 39.0201 30.0145C41.2032 27.8315 42.4313 24.8717 42.4349 21.7843ZM20.7856 21.7843C20.7855 19.8056 21.3722 17.8712 22.4715 16.2259C23.5708 14.5806 25.1333 13.2982 26.9614 12.541C28.7895 11.7837 30.8011 11.5855 32.7418 11.9715C34.6826 12.3575 36.4652 13.3104 37.8644 14.7096C39.2636 16.1088 40.2165 17.8914 40.6025 19.8322C40.9885 21.7729 40.7903 23.7845 40.0331 25.6126C39.2758 27.4407 37.9934 29.0032 36.3481 30.1025C34.7028 31.2018 32.7684 31.7885 30.7897 31.7884C28.1374 31.7854 25.5945 30.7304 23.719 28.855C21.8436 26.9795 20.7886 24.4366 20.7856 21.7843Z" fill="#000C31"/>
<path d="M33.6588 27.5118C33.7942 27.5832 33.9469 27.6152 34.0996 27.6043C34.2523 27.5933 34.3989 27.5398 34.5227 27.4499C34.6466 27.3599 34.7428 27.2371 34.8004 27.0953C34.8581 26.9534 34.8749 26.7983 34.8489 26.6474L34.3014 23.4529L36.6222 21.1903C36.7318 21.0835 36.8094 20.9481 36.8461 20.7995C36.8828 20.6509 36.8772 20.495 36.8299 20.3495C36.7826 20.2039 36.6954 20.0745 36.5784 19.9759C36.4613 19.8773 36.319 19.8134 36.1675 19.7915L32.9598 19.3256L31.5255 16.4193C31.4577 16.2821 31.3529 16.1666 31.2229 16.0859C31.093 16.0051 30.943 15.9623 30.79 15.9623C30.637 15.9623 30.487 16.0051 30.3571 16.0859C30.2271 16.1666 30.1223 16.2821 30.0545 16.4193L28.6202 19.3256L25.4125 19.7915C25.261 19.8134 25.1187 19.8773 25.0016 19.9759C24.8846 20.0745 24.7974 20.2039 24.7501 20.3495C24.7028 20.495 24.6972 20.6509 24.7339 20.7995C24.7706 20.9481 24.8482 21.0835 24.9578 21.1903L27.2786 23.4529L26.7311 26.6474C26.7051 26.7983 26.7219 26.9534 26.7796 27.0953C26.8372 27.2371 26.9334 27.3599 27.0573 27.4499C27.1811 27.5398 27.3277 27.5933 27.4804 27.6043C27.6331 27.6152 27.7858 27.5832 27.9213 27.5118L30.79 26.0043L33.6588 27.5118ZM28.6291 25.2862L28.9684 23.3053C28.9912 23.1743 28.9817 23.0398 28.9409 22.9133C28.9 22.7868 28.8291 22.6721 28.7341 22.5792L27.295 21.1762L29.2839 20.887C29.4156 20.868 29.5406 20.8172 29.6483 20.739C29.7559 20.6609 29.8429 20.5577 29.9017 20.4384L30.7923 18.6356L31.683 20.4384C31.7419 20.5576 31.8289 20.6608 31.9365 20.7389C32.0441 20.8171 32.1692 20.8679 32.3008 20.887L34.2897 21.1762L32.8506 22.5792C32.7556 22.6721 32.6847 22.7868 32.6438 22.9133C32.603 23.0398 32.5935 23.1743 32.6163 23.3053L32.9556 25.2862L31.1744 24.3487C31.0567 24.2868 30.9258 24.2545 30.7928 24.2545C30.6599 24.2545 30.5289 24.2868 30.4113 24.3487L28.6291 25.2862Z" fill="#000C31"/>
</svg>
