<svg  viewBox="0 0 11 11" fill="none" xmlns="http://www.w3.org/2000/svg">
<path d="M5.50137 0H5.49863C2.46606 0 0 2.46675 0 5.5C0 6.70312 0.38775 7.81825 1.04706 8.72369L0.361625 10.7669L2.47569 10.0911C3.34538 10.6673 4.38281 11 5.50137 11C8.53394 11 11 8.53256 11 5.5C11 2.46744 8.53394 0 5.50137 0Z" fill="#4CAF50"/>
<path d="M8.70187 7.76675C8.56918 8.14144 8.04256 8.45219 7.6225 8.54294C7.33512 8.60412 6.95975 8.65294 5.69612 8.12906C4.07981 7.45944 3.03894 5.817 2.95781 5.71044C2.88012 5.60387 2.30469 4.84075 2.30469 4.0515C2.30469 3.26225 2.7055 2.87794 2.86706 2.71294C2.99975 2.5775 3.21906 2.51562 3.42944 2.51562C3.4975 2.51562 3.55869 2.51906 3.61369 2.52181C3.77525 2.52869 3.85637 2.53831 3.96294 2.79338C4.09562 3.11306 4.41875 3.90231 4.45725 3.98344C4.49644 4.06456 4.53562 4.17456 4.48062 4.28112C4.42906 4.39112 4.38369 4.43994 4.30256 4.53344C4.22144 4.62694 4.14444 4.69844 4.06331 4.79881C3.98906 4.88612 3.90519 4.97962 3.99869 5.14119C4.09219 5.29931 4.41531 5.82662 4.89106 6.25012C5.505 6.79669 6.00275 6.97131 6.18081 7.04556C6.3135 7.10056 6.47162 7.0875 6.56856 6.98437C6.69162 6.85169 6.84356 6.63169 6.99825 6.41512C7.10825 6.25975 7.24712 6.2405 7.39287 6.2955C7.54137 6.34706 8.32719 6.7355 8.48875 6.81594C8.65031 6.89706 8.75687 6.93556 8.79606 7.00362C8.83456 7.07169 8.83456 7.39137 8.70187 7.76675Z" fill="#FAFAFA"/>
</svg>
