<svg width="16" height="91" viewBox="0 0 16 91" fill="none" xmlns="http://www.w3.org/2000/svg">
<path d="M7.29289 90.7071C7.68342 91.0976 8.31658 91.0976 8.70711 90.7071L15.0711 84.3431C15.4616 83.9526 15.4616 83.3195 15.0711 82.9289C14.6805 82.5384 14.0474 82.5384 13.6569 82.9289L8 88.5858L2.34315 82.9289C1.95262 82.5384 1.31946 82.5384 0.928932 82.9289C0.538408 83.3195 0.538408 83.9526 0.928932 84.3431L7.29289 90.7071ZM8.70711 0.292892C8.31658 -0.0976334 7.68342 -0.0976334 7.29289 0.292892L0.928932 6.65685C0.538408 7.04738 0.538408 7.68054 0.928932 8.07107C1.31946 8.46159 1.95262 8.46159 2.34315 8.07107L8 2.41422L13.6569 8.07107C14.0474 8.46159 14.6805 8.46159 15.0711 8.07107C15.4616 7.68054 15.4616 7.04738 15.0711 6.65685L8.70711 0.292892ZM9 90L9 1H7L7 90H9Z" fill="#A0A9B7"/>
</svg>
