<svg width="26" height="26" viewBox="0 0 26 26" fill="none" xmlns="http://www.w3.org/2000/svg">
<g clip-path="url(#clip0)">
<path d="M22.4453 13.4987C22.2323 13.4987 22.0399 13.361 21.9676 13.1617C21.8966 12.9662 21.9574 12.7376 22.1168 12.6035C22.2838 12.4631 22.5275 12.4441 22.7132 12.5595C22.8911 12.6699 22.9835 12.8849 22.9429 13.0899C22.8965 13.3242 22.6842 13.4987 22.4453 13.4987Z" fill="#000C31"/>
<path d="M18.0112 20.0586H15.9255C15.6451 20.0586 15.4177 19.8312 15.4177 19.5508C15.4177 19.2703 15.6451 19.043 15.9255 19.043H18.0112C18.2916 19.043 18.519 19.2703 18.519 19.5508C18.519 19.8312 18.2916 20.0586 18.0112 20.0586Z" fill="#000C31"/>
<path d="M18.0112 21.6145H15.9255C15.6451 21.6145 15.4177 21.3872 15.4177 21.1067C15.4177 20.8262 15.6451 20.5989 15.9255 20.5989H18.0112C18.2916 20.5989 18.519 20.8262 18.519 21.1067C18.519 21.3872 18.2916 21.6145 18.0112 21.6145Z" fill="#000C31"/>
<path d="M18.0112 13.4321H15.9255C15.6451 13.4321 15.4177 13.2048 15.4177 12.9243C15.4177 12.6439 15.6451 12.4165 15.9255 12.4165H18.0112C18.2916 12.4165 18.519 12.6439 18.519 12.9243C18.519 13.2048 18.2916 13.4321 18.0112 13.4321Z" fill="#000C31"/>
<path d="M10.0742 12.4166H9.53918V11.8816C9.53918 11.6011 9.31183 11.3738 9.03137 11.3738C8.7509 11.3738 8.52356 11.6011 8.52356 11.8816V12.4166H7.98853C7.70806 12.4166 7.48071 12.644 7.48071 12.9244C7.48071 13.2049 7.70806 13.4322 7.98853 13.4322H8.52356V13.9673C8.52356 14.2477 8.7509 14.4751 9.03137 14.4751C9.31183 14.4751 9.53918 14.2477 9.53918 13.9673V13.4322H10.0742C10.3547 13.4322 10.582 13.2049 10.582 12.9244C10.582 12.644 10.3547 12.4166 10.0742 12.4166Z" fill="#000C31"/>
<path d="M10.1279 19.2915C9.9296 19.0932 9.60805 19.0932 9.4097 19.2915L9.03138 19.6699L8.65306 19.2915C8.45476 19.0932 8.13321 19.0932 7.93486 19.2915C7.73656 19.4898 7.73656 19.8114 7.93486 20.0097L8.31318 20.3881L7.93486 20.7664C7.73656 20.9647 7.73656 21.2862 7.93486 21.4846C8.03403 21.5838 8.16398 21.6333 8.29393 21.6333C8.42388 21.6333 8.55388 21.5838 8.65301 21.4846L9.03133 21.1063L9.40965 21.4846C9.50882 21.5838 9.63877 21.6333 9.76872 21.6333C9.89867 21.6333 10.0287 21.5838 10.1278 21.4846C10.3261 21.2863 10.3261 20.9647 10.1278 20.7664L9.74947 20.3881L10.1278 20.0097C10.3262 19.8114 10.3262 19.4898 10.1279 19.2915Z" fill="#000C31"/>
<path d="M19.9752 23.649H13.9614C13.681 23.649 13.4536 23.4217 13.4536 23.1412V17.6353C13.4536 17.3548 13.681 17.1274 13.9614 17.1274H19.9752C20.2557 17.1274 20.483 17.3548 20.483 17.6353V23.1412C20.4831 23.4217 20.2557 23.649 19.9752 23.649ZM14.4692 22.6334H19.4674V18.1431H14.4692V22.6334Z" fill="#000C31"/>
<path d="M12.0382 23.649H6.02441C5.74395 23.649 5.5166 23.4217 5.5166 23.1412V17.6353C5.5166 17.3548 5.74395 17.1274 6.02441 17.1274H12.0382C12.3186 17.1274 12.546 17.3548 12.546 17.6353V23.1412C12.546 23.4217 12.3186 23.649 12.0382 23.649ZM6.53223 22.6334H11.5304V18.1431H6.53223V22.6334Z" fill="#000C31"/>
<path d="M19.9752 16.1852H13.9614C13.681 16.1852 13.4536 15.9578 13.4536 15.6773V10.1714C13.4536 9.89092 13.681 9.66357 13.9614 9.66357H19.9752C20.2557 9.66357 20.483 9.89092 20.483 10.1714V15.6773C20.4831 15.9578 20.2557 16.1852 19.9752 16.1852ZM14.4692 15.1695H19.4674V10.6792H14.4692V15.1695Z" fill="#000C31"/>
<path d="M12.0382 16.1852H6.02441C5.74395 16.1852 5.5166 15.9578 5.5166 15.6773V10.1714C5.5166 9.89092 5.74395 9.66357 6.02441 9.66357H12.0382C12.3186 9.66357 12.546 9.89092 12.546 10.1714V15.6773C12.546 15.9578 12.3186 16.1852 12.0382 16.1852ZM6.53223 15.1695H11.5304V10.6792H6.53223V15.1695Z" fill="#000C31"/>
<path d="M19.9752 7.82682H6.02441C5.74395 7.82682 5.5166 7.59947 5.5166 7.319V2.85889C5.5166 2.57842 5.74395 2.35107 6.02441 2.35107H19.9752C20.2557 2.35107 20.4831 2.57842 20.4831 2.85889V7.319C20.4831 7.59947 20.2557 7.82682 19.9752 7.82682ZM6.53223 6.81119H19.4674V3.3667H6.53223V6.81119Z" fill="#000C31"/>
<path d="M21.4766 26H4.52329C3.70916 26 3.04688 25.3377 3.04688 24.5236V1.47641C3.04688 0.66234 3.70916 0 4.52329 0H21.4767C22.2908 0 22.9531 0.66234 22.9531 1.47641V10.7043C22.9531 10.9848 22.7257 11.2121 22.4453 11.2121C22.1648 11.2121 21.9374 10.9848 21.9374 10.7043V1.47641C21.9374 1.22236 21.7307 1.01562 21.4767 1.01562H4.52329C4.26923 1.01562 4.0625 1.22236 4.0625 1.47641V24.5236C4.0625 24.7776 4.26923 24.9844 4.52329 24.9844H21.4767C21.7307 24.9844 21.9374 24.7776 21.9374 24.5236V15.2956C21.9374 15.0152 22.1648 14.7878 22.4453 14.7878C22.7257 14.7878 22.9531 15.0152 22.9531 15.2956V24.5236C22.953 25.3377 22.2907 26 21.4766 26Z" fill="#000C31"/>
</g>
<defs>
<clipPath id="clip0">
<rect width="26" height="26" fill="white"/>
</clipPath>
</defs>
</svg>
