<svg width="27" height="26" viewBox="0 0 27 26" fill="none" xmlns="http://www.w3.org/2000/svg">
<path d="M22.2047 7.58333H17.8714V4.33333C17.8714 1.94025 15.9312 0 13.5381 0C11.145 0 9.20474 1.94025 9.20474 4.33333V7.58333H4.87141L2.70474 26H24.3714L22.2047 7.58333ZM10.2881 4.33333C10.2881 2.5415 11.7462 1.08333 13.5381 1.08333C15.3299 1.08333 16.7881 2.5415 16.7881 4.33333V7.58333H10.2881V4.33333ZM5.14116 23.8333L6.79758 9.75H9.20474V11.375C9.20474 11.674 9.44741 11.9167 9.74641 11.9167C10.0454 11.9167 10.2881 11.674 10.2881 11.375V9.75H16.7881V11.375C16.7881 11.674 17.0307 11.9167 17.3297 11.9167C17.6287 11.9167 17.8714 11.674 17.8714 11.375V9.75H20.2786L21.935 23.8333H5.14116Z" fill="white"/>
</svg>
