<svg width="26" height="26" viewBox="0 0 26 26" fill="none" xmlns="http://www.w3.org/2000/svg">
<path d="M12.7628 9.98896C12.4459 9.67208 11.9308 9.67046 11.6123 9.98733L8.9375 12.6637L7.88775 11.6123C7.57088 11.2955 7.05575 11.2955 6.73888 11.6123C6.422 11.9292 6.422 12.4443 6.73888 12.7612L8.36388 14.3862C8.5215 14.5455 8.7295 14.6251 8.9375 14.6251C9.1455 14.6251 9.3535 14.5455 9.51275 14.3878L12.7628 11.1378C13.0796 10.821 13.0796 10.3058 12.7628 9.98896Z" fill="#000C31"/>
<path d="M12.7628 16.489C12.4459 16.1721 11.9308 16.1705 11.6123 16.4873L8.9375 19.1637L7.88775 18.114C7.57088 17.7971 7.05575 17.7971 6.73888 18.114C6.422 18.4308 6.422 18.946 6.73888 19.2628L8.36388 20.8878C8.5215 21.0455 8.7295 21.1251 8.9375 21.1251C9.1455 21.1251 9.3535 21.0455 9.51275 20.8878L12.7628 17.6378C13.0796 17.321 13.0796 16.8058 12.7628 16.489Z" fill="#000C31"/>
<path d="M18.6875 11.375H15.4375C14.989 11.375 14.625 11.739 14.625 12.1875C14.625 12.636 14.989 13 15.4375 13H18.6875C19.136 13 19.5 12.636 19.5 12.1875C19.5 11.739 19.136 11.375 18.6875 11.375Z" fill="#000C31"/>
<path d="M18.6875 17.875H15.4375C14.989 17.875 14.625 18.239 14.625 18.6875C14.625 19.136 14.989 19.5 15.4375 19.5H18.6875C19.136 19.5 19.5 19.136 19.5 18.6875C19.5 18.239 19.136 17.875 18.6875 17.875Z" fill="#000C31"/>
<path d="M21.125 3.25H17.875V2.4375C17.875 1.989 17.511 1.625 17.0625 1.625H15.2994C14.963 0.67925 14.0595 0 13 0C11.9405 0 11.037 0.67925 10.7006 1.625H8.9375C8.489 1.625 8.125 1.989 8.125 2.4375V3.25H4.875C3.97962 3.25 3.25 3.97962 3.25 4.875V24.375C3.25 25.2704 3.97962 26 4.875 26H21.125C22.0204 26 22.75 25.2704 22.75 24.375V4.875C22.75 3.97962 22.0204 3.25 21.125 3.25ZM9.75 3.25H11.375C11.8235 3.25 12.1875 2.886 12.1875 2.4375C12.1875 1.989 12.5515 1.625 13 1.625C13.4485 1.625 13.8125 1.989 13.8125 2.4375C13.8125 2.886 14.1765 3.25 14.625 3.25H16.25V4.875H9.75V3.25ZM21.125 24.375H4.875V4.875H8.125V5.6875C8.125 6.136 8.489 6.5 8.9375 6.5H17.0625C17.511 6.5 17.875 6.136 17.875 5.6875V4.875H21.125V24.375Z" fill="#000C31"/>
</svg>
