<svg width="34" height="34" viewBox="0 0 34 34" fill="none" xmlns="http://www.w3.org/2000/svg">
<path d="M27.4462 29.5851L21.8138 19.7785C23.419 18.8373 24.6768 17.4023 25.3997 15.6877C26.1225 13.973 26.2716 12.0707 25.8247 10.2644C25.3778 8.45805 24.3589 6.84465 22.92 5.66485C21.481 4.48506 19.6992 3.80212 17.8404 3.71792C15.9815 3.63372 14.1452 4.15277 12.6055 5.19765C11.0658 6.24252 9.90522 7.7572 9.29686 9.51571C8.6885 11.2742 8.665 13.1823 9.22986 14.9552C9.79472 16.7282 10.9177 18.271 12.4312 19.3535L6.55368 29.5851C6.5022 29.6749 6.48217 29.7793 6.49677 29.8818C6.51138 29.9843 6.55977 30.079 6.63429 30.1509C6.70881 30.2227 6.80518 30.2677 6.90813 30.2785C7.01108 30.2894 7.11472 30.2656 7.20261 30.2109L10.0907 28.4129L10.9617 30.0361C11.0009 30.1092 11.0589 30.1705 11.1298 30.2136C11.2007 30.2567 11.2818 30.2801 11.3647 30.2813C11.4475 30.2817 11.5289 30.2604 11.6009 30.2194C11.6728 30.1784 11.7327 30.1193 11.7745 30.0478L16.9951 20.9579H17.005L22.2253 30.0473C22.266 30.1183 22.3247 30.1773 22.3955 30.2184C22.4663 30.2595 22.5467 30.2812 22.6285 30.2813H22.6352C22.7181 30.2801 22.7992 30.2567 22.87 30.2136C22.9409 30.1705 22.9989 30.1092 23.0381 30.0361L23.9091 28.4129L26.7972 30.2109C26.8851 30.2656 26.9888 30.2894 27.0917 30.2785C27.1947 30.2677 27.291 30.2227 27.3655 30.1509C27.4401 30.079 27.4885 29.9843 27.5031 29.8818C27.5177 29.7793 27.4976 29.6749 27.4462 29.5851ZM9.75181 12.3444C9.7517 10.8223 10.203 9.33429 11.0486 8.06862C11.8942 6.80295 13.0961 5.81646 14.5023 5.2339C15.9086 4.65134 17.456 4.49887 18.9489 4.79578C20.4418 5.0927 21.8132 5.82565 22.8895 6.90195C23.9659 7.97826 24.6989 9.34957 24.9958 10.8425C25.2928 12.3354 25.1404 13.8828 24.5579 15.2891C23.9754 16.6954 22.9889 17.8973 21.7233 18.7429C20.4576 19.5886 18.9696 20.0399 17.4475 20.0399C15.4072 20.0375 13.4512 19.226 12.0085 17.7834C10.5658 16.3407 9.7542 14.3847 9.75181 12.3444ZM11.3851 28.8591L10.6757 27.5366C10.6456 27.4806 10.6043 27.4314 10.5545 27.392C10.5046 27.3525 10.4472 27.3238 10.3858 27.3074C10.3244 27.291 10.2603 27.2874 10.1975 27.2967C10.1346 27.3061 10.0743 27.3283 10.0204 27.3618L8.28078 28.4448L13.2142 19.855C14.0749 20.3425 15.0137 20.677 15.9887 20.8436L11.3851 28.8591ZM23.9795 27.3618C23.9255 27.3283 23.8652 27.3061 23.8024 27.2967C23.7395 27.2874 23.6754 27.291 23.614 27.3074C23.5526 27.3238 23.4952 27.3525 23.4454 27.392C23.3955 27.4314 23.3543 27.4806 23.3242 27.5366L22.6147 28.8591L18.0693 20.9448C19.0781 20.8731 20.0662 20.6231 20.9877 20.2067L25.7191 28.4448L23.9795 27.3618Z" fill="#000C31"/>
<path d="M24.0465 12.3445C24.0465 11.0393 23.6596 9.76345 22.9345 8.67822C22.2094 7.593 21.1788 6.74716 19.973 6.24766C18.7672 5.74816 17.4404 5.61745 16.1603 5.87204C14.8803 6.12663 13.7044 6.75509 12.7815 7.67796C11.8586 8.60082 11.2301 9.77664 10.9755 11.0567C10.7208 12.3368 10.8515 13.6636 11.3509 14.8694C11.8504 16.0752 12.6962 17.1059 13.7814 17.831C14.8666 18.5561 16.1424 18.9431 17.4476 18.9431C19.1971 18.9411 20.8743 18.2453 22.1114 17.0083C23.3485 15.7712 24.0444 14.094 24.0465 12.3445ZM11.7786 12.3445C11.7785 11.2232 12.111 10.127 12.7339 9.1947C13.3568 8.26236 14.2423 7.53568 15.2782 7.10656C16.3141 6.67743 17.454 6.56514 18.5538 6.78388C19.6535 7.00262 20.6637 7.54257 21.4566 8.33544C22.2494 9.12831 22.7894 10.1385 23.0081 11.2382C23.2269 12.338 23.1146 13.4779 22.6855 14.5138C22.2563 15.5498 21.5297 16.4352 20.5973 17.0581C19.665 17.681 18.5688 18.0135 17.4476 18.0134C15.9446 18.0117 14.5036 17.4139 13.4409 16.3512C12.3781 15.2884 11.7803 13.8474 11.7786 12.3445Z" fill="#000C31"/>
<path d="M19.0732 15.59C19.15 15.6305 19.2365 15.6486 19.323 15.6424C19.4096 15.6362 19.4926 15.6059 19.5628 15.5549C19.633 15.504 19.6875 15.4343 19.7202 15.354C19.7529 15.2736 19.7624 15.1857 19.7477 15.1002L19.4374 13.29L20.7525 12.0078C20.8147 11.9473 20.8586 11.8706 20.8794 11.7864C20.9002 11.7022 20.897 11.6139 20.8702 11.5314C20.8434 11.4489 20.794 11.3755 20.7277 11.3197C20.6614 11.2638 20.5807 11.2276 20.4949 11.2152L18.6772 10.9512L17.8644 9.30428C17.826 9.22654 17.7666 9.16109 17.693 9.11533C17.6193 9.06957 17.5343 9.04532 17.4476 9.04532C17.3609 9.04532 17.2759 9.06957 17.2023 9.11533C17.1286 9.16109 17.0693 9.22654 17.0308 9.30428L16.218 10.9512L14.4004 11.2152C14.3145 11.2276 14.2339 11.2638 14.1675 11.3197C14.1012 11.3755 14.0518 11.4489 14.025 11.5314C13.9982 11.6139 13.995 11.7022 14.0158 11.7864C14.0366 11.8706 14.0806 11.9473 14.1427 12.0078L15.4578 13.29L15.1476 15.1002C15.1329 15.1857 15.1424 15.2736 15.175 15.354C15.2077 15.4343 15.2622 15.504 15.3324 15.5549C15.4026 15.6059 15.4857 15.6362 15.5722 15.6424C15.6587 15.6486 15.7452 15.6305 15.822 15.59L17.4476 14.7358L19.0732 15.59ZM16.2231 14.3288L16.4154 13.2063C16.4283 13.1321 16.4229 13.0559 16.3998 12.9842C16.3766 12.9125 16.3364 12.8475 16.2826 12.7949L15.4671 11.9998L16.5942 11.836C16.6688 11.8252 16.7396 11.7964 16.8006 11.7521C16.8616 11.7078 16.9109 11.6494 16.9443 11.5818L17.4489 10.5602L17.9536 11.5818C17.987 11.6493 18.0363 11.7078 18.0973 11.7521C18.1583 11.7964 18.2291 11.8251 18.3037 11.836L19.4308 11.9998L18.6153 12.7949C18.5615 12.8475 18.5213 12.9125 18.4981 12.9842C18.475 13.0559 18.4696 13.1321 18.4825 13.2063L18.6748 14.3288L17.6654 13.7976C17.5987 13.7625 17.5245 13.7442 17.4492 13.7442C17.3739 13.7442 17.2997 13.7625 17.233 13.7976L16.2231 14.3288Z" fill="#000C31"/>
</svg>
