<?xml version="1.0" encoding="utf-8"?><svg width="32" height="32" fill="none" xmlns="http://www.w3.org/2000/svg" viewBox="0 0 32 32"><path d="M24.655 12.306l1.961-3.398-3.005-2.522-.682-3.864h-3.923L16 0l-3.006 2.522H9.071l-.682 3.864-3.005 2.522 1.962 3.398-.682 3.864 1.815.66V32h1.993l5.543-5.869L21.575 32h1.975V16.82l1.786-.65-.681-3.864zM10.362 29.372v-11.84l1.951 3.378 2.76-1.004v4.48l-4.71 4.986zm11.304-.015l-4.71-4.971v-4.47l2.731.994 1.962-3.398.017-.006v11.851zm1.014-17.399l.526 2.983-2.846 1.035-1.514 2.623L16 17.563 13.154 18.6l-1.514-2.623-2.846-1.035.526-2.983-1.514-2.623 2.32-1.947.526-2.982h3.028L16 2.459l2.32 1.947h3.029l.526 2.982 2.32 1.947-1.515 2.623z" fill="#586386"/><path d="M14.57 11.093l-1.309-1.528-1.43 1.226 2.458 2.868 5.73-4.297-1.13-1.507-4.318 3.238z" fill="#586386"/></svg>