<?xml version="1.0" encoding="utf-8"?><svg width="11" height="11" fill="none" xmlns="http://www.w3.org/2000/svg" viewBox="0 0 11 11"><path d="M5.501 0H5.5A5.505 5.505 0 000 5.5a5.46 5.46 0 001.047 3.224l-.685 2.043 2.114-.676c.87.576 1.907.909 3.025.909A5.505 5.505 0 0011 5.5C11 2.467 8.534 0 5.501 0z" fill="#4CAF50"/><path d="M8.702 7.767c-.133.374-.66.685-1.08.776-.287.061-.662.11-1.926-.414C4.08 7.46 3.04 5.817 2.958 5.71c-.078-.106-.653-.87-.653-1.659s.4-1.173.562-1.338c.133-.135.352-.197.562-.197.069 0 .13.003.185.006.161.007.242.016.349.271.133.32.456 1.11.494 1.19.04.082.079.192.024.298-.052.11-.097.159-.178.252-.082.094-.159.165-.24.266-.074.087-.158.18-.064.342.093.158.416.686.892 1.11.614.546 1.112.72 1.29.795.133.055.29.042.388-.062.123-.132.275-.352.43-.569.11-.155.248-.175.394-.12.148.052.934.44 1.096.52.161.082.268.12.307.189.039.068.039.387-.094.763z" fill="#FAFAFA"/></svg>