<svg viewBox="0 0 11 11" fill="none" xmlns="http://www.w3.org/2000/svg">
<path d="M5.5 11C8.53757 11 11 8.53757 11 5.5C11 2.46243 8.53757 0 5.5 0C2.46243 0 0 2.46243 0 5.5C0 8.53757 2.46243 11 5.5 11Z" fill="#039BE5"/>
<path d="M2.51671 5.38068L7.81962 3.33606C8.06575 3.24714 8.28071 3.3961 8.20096 3.76827L8.20141 3.76781L7.2985 8.0216C7.23158 8.32318 7.05237 8.39652 6.80166 8.25443L5.42666 7.24106L4.76346 7.87998C4.69012 7.95331 4.62825 8.01518 4.48616 8.01518L4.58379 6.61589L7.13212 4.31368C7.24304 4.21606 7.10737 4.16106 6.96116 4.25823L3.81196 6.24098L2.45437 5.81748C2.15966 5.72398 2.15325 5.52277 2.51671 5.38068Z" fill="white"/>
</svg>
