<svg width="26" height="19" viewBox="0 0 26 19" fill="none" xmlns="http://www.w3.org/2000/svg">
<path d="M17.3348 15.8383L17.3339 15.839C17.3339 15.839 17.3339 15.839 17.3339 15.839C17.0504 16.0625 16.8067 16.2541 16.5156 16.3919C16.2272 16.5283 15.8883 16.6135 15.4169 16.6135C14.9456 16.6135 14.6067 16.5283 14.3184 16.3919C14.0273 16.2541 13.7837 16.0625 13.5002 15.839L13.5002 15.839C12.854 15.3292 12.1032 14.7369 10.6576 14.7369C9.21268 14.7369 8.46194 15.3289 7.81597 15.8383L7.81514 15.839C7.53167 16.0625 7.28802 16.2541 6.99695 16.3919C6.7086 16.5283 6.36975 16.6135 5.89846 16.6135C5.42718 16.6135 5.08833 16.5283 4.79998 16.3919C4.50891 16.2541 4.26525 16.0625 3.98179 15.839L3.98178 15.839L3.98066 15.8381C3.33458 15.3288 2.58385 14.7369 1.13916 14.7369H1.03916V14.8369V16.4007V16.5007H1.13916C1.61054 16.5007 1.94939 16.5858 2.2377 16.7223C2.52875 16.8601 2.77235 17.0517 3.05581 17.2754L3.05584 17.2754L3.05684 17.2762C3.70297 17.7855 4.45351 18.3773 5.89846 18.3773C7.34363 18.3773 8.09437 17.7852 8.74044 17.2757L8.74091 17.2754L8.74093 17.2754C9.02438 17.0517 9.26804 16.8601 9.55911 16.7223C9.84745 16.5858 10.1863 16.5007 10.6576 16.5007C11.129 16.5007 11.4678 16.5858 11.7562 16.7223C12.0472 16.8601 12.2909 17.0517 12.5744 17.2754L12.5744 17.2754L12.5749 17.2757C13.221 17.7852 13.9717 18.3773 15.4169 18.3773C16.862 18.3773 17.6128 17.7854 18.2589 17.276L18.2597 17.2754L18.2597 17.2754C18.5432 17.0518 18.7868 16.8602 19.0779 16.7224C19.3663 16.5859 19.7052 16.5007 20.1766 16.5007C20.6479 16.5007 20.9868 16.5858 21.2751 16.7223C21.5662 16.8601 21.8098 17.0517 22.0934 17.2754L22.1553 17.1969L22.0934 17.2754L22.0939 17.2757C22.74 17.7852 23.4907 18.3773 24.936 18.3773H25.036V18.2773V16.7135V16.6135H24.936C24.4647 16.6135 24.1258 16.5283 23.8374 16.3919C23.5463 16.2541 23.3026 16.0625 23.0192 15.839L23.0192 15.839L23.0181 15.8381C22.372 15.3288 21.6212 14.7369 20.1766 14.7369C18.7315 14.7369 17.9807 15.3289 17.3348 15.8383Z" fill="#586386" stroke="#586386" stroke-width="0.2"/>
<path d="M17.3339 6.61418L17.3344 6.61382C17.9805 6.10433 18.7312 5.5123 20.1766 5.5123C21.6215 5.5123 22.3722 6.10416 23.0184 6.61359L23.0192 6.61418L23.0192 6.61419C23.3027 6.83774 23.5463 7.02938 23.8374 7.16717C24.1258 7.30368 24.4647 7.38887 24.936 7.38887H25.036V7.48887V9.05267V9.15267H24.936C23.4904 9.15267 22.7396 8.5604 22.0935 8.05062L22.0934 8.05059L17.3339 6.61418ZM17.3339 6.61418C17.3339 6.61419 17.3339 6.61419 17.3339 6.61419C17.0504 6.83774 16.8067 7.02937 16.5155 7.16717C16.2271 7.30368 15.8883 7.38887 15.4169 7.38887C14.9456 7.38887 14.6068 7.30368 14.3184 7.16717C14.0273 7.02938 13.7837 6.83774 13.5002 6.61419L13.4383 6.69271L13.5002 6.61419L13.4997 6.61382C12.8537 6.10433 12.1029 5.5123 10.6576 5.5123C9.21242 5.5123 8.46168 6.10433 7.81561 6.61382L7.81514 6.61419C7.53166 6.83774 7.28801 7.02938 6.99693 7.16717C6.70859 7.30368 6.36974 7.38887 5.89846 7.38887C5.42719 7.38887 5.08834 7.30368 4.79999 7.16717C4.50892 7.02938 4.26526 6.83774 3.98179 6.61419L3.98178 6.61418M17.3339 6.61418L3.98178 6.61418M3.98178 6.61418L3.98102 6.61359C3.33484 6.10416 2.58411 5.5123 1.13916 5.5123H1.03916M3.98178 6.61418L1.03916 5.5123M1.03916 5.5123V5.6123M1.03916 5.5123V5.6123M1.03916 5.6123V7.17611V7.27611M1.03916 5.6123V7.27611M1.03916 7.27611H1.13916M1.03916 7.27611H1.13916M1.13916 7.27611C1.61054 7.27611 1.94939 7.36125 2.23771 7.49771C2.52876 7.63545 2.77236 7.82704 3.05583 8.05058L3.05643 8.05105C3.70265 8.56072 4.45321 9.15267 5.89846 9.15267C7.34337 9.15267 8.0941 8.56065 8.74008 8.05124L8.74091 8.05058C9.02437 7.82704 9.26803 7.63546 9.5591 7.49771C9.84745 7.36125 10.1863 7.27611 10.6576 7.27611C11.129 7.27611 11.4678 7.36125 11.7562 7.49771C12.0472 7.63546 12.2909 7.82704 12.5744 8.05059L12.5745 8.05063C13.2207 8.5604 13.9714 9.15267 15.4169 9.15267C16.8618 9.15267 17.6125 8.56082 18.2586 8.05147L18.2597 8.05059L18.2597 8.05058M1.13916 7.27611L18.2597 8.05058M18.2597 8.05058C18.5432 7.82704 18.7868 7.63546 19.0779 7.49771M18.2597 8.05058L19.0779 7.49771M19.0779 7.49771C19.3663 7.36125 19.7052 7.27611 20.1766 7.27611M19.0779 7.49771L20.1766 7.27611M20.1766 7.27611C20.6479 7.27611 20.9868 7.36125 21.2751 7.49771M20.1766 7.27611L21.2751 7.49771M21.2751 7.49771C21.5662 7.63545 21.8098 7.82703 22.0934 8.05057L21.2751 7.49771Z" fill="#586386" stroke="#586386" stroke-width="0.2"/>
<path d="M7.81514 11.2265L7.87706 11.305L7.81514 11.2265C7.53166 11.45 7.28801 11.6417 6.99693 11.7794C6.70859 11.916 6.36974 12.0011 5.89846 12.0011C5.42719 12.0011 5.08834 11.916 4.79999 11.7794C4.50892 11.6417 4.26526 11.45 3.98179 11.2265L3.98178 11.2265L3.98102 11.2259C3.33484 10.7165 2.58411 10.1246 1.13916 10.1246H1.03916V10.2246V11.7884V11.8884H1.13916C1.61054 11.8884 1.94939 11.9735 2.23771 12.11C2.52876 12.2477 2.77236 12.4393 3.05583 12.6628L3.05584 12.6629L3.0572 12.6639C3.70323 13.1732 4.45377 13.7649 5.89846 13.7649C7.34337 13.7649 8.0941 13.1729 8.74008 12.6635L8.74091 12.6628C9.02437 12.4393 9.26803 12.2477 9.5591 12.11C9.84745 11.9735 10.1863 11.8884 10.6576 11.8884C11.129 11.8884 11.4678 11.9735 11.7562 12.11C12.0472 12.2477 12.2909 12.4393 12.5744 12.6629L12.5753 12.6635C13.2212 13.1729 13.972 13.7649 15.4169 13.7649C16.8618 13.7649 17.6125 13.1731 18.2586 12.6637L18.2597 12.6629L18.2597 12.6628C18.5432 12.4393 18.7868 12.2477 19.0779 12.11C19.3663 11.9735 19.7052 11.8884 20.1766 11.8884C20.6479 11.8884 20.9868 11.9735 21.2751 12.11C21.5662 12.2477 21.8099 12.4393 22.0934 12.6629L22.0942 12.6635C22.7402 13.1729 23.4909 13.7649 24.936 13.7649H25.036V13.6649V12.1011V12.0011H24.936C24.4647 12.0011 24.1258 11.916 23.8374 11.7794C23.5463 11.6417 23.3027 11.45 23.0192 11.2265L23.0192 11.2265L23.0184 11.2259C22.3722 10.7165 21.6215 10.1246 20.1766 10.1246C18.7312 10.1246 17.9805 10.7166 17.3344 11.2261L17.3339 11.2265C17.0504 11.45 16.8067 11.6416 16.5155 11.7794C16.2271 11.916 15.8883 12.0011 15.4169 12.0011C14.9456 12.0011 14.6068 11.916 14.3184 11.7794C14.0273 11.6417 13.7837 11.45 13.5002 11.2265L13.4997 11.2261C12.8537 10.7166 12.1029 10.1246 10.6576 10.1246C9.21242 10.1246 8.46168 10.7166 7.81561 11.2261L7.81514 11.2265Z" fill="#586386" stroke="#586386" stroke-width="0.2"/>
<path d="M2.23771 2.88537C2.52876 3.02311 2.77236 3.21469 3.05583 3.43823L12.5744 3.43825L12.5745 3.43828C13.2207 3.94804 13.9714 4.54031 15.4169 4.54031C16.8623 4.54031 17.6131 3.94822 18.2594 3.43851L18.2597 3.43823C18.5432 3.2147 18.7868 3.02312 19.0779 2.88537C19.3663 2.74892 19.7052 2.66378 20.1766 2.66378C20.6479 2.66378 20.9868 2.74892 21.2751 2.88537C21.5662 3.02312 21.8099 3.2147 22.0934 3.43825L22.0935 3.43827C22.7396 3.94804 23.4904 4.54031 24.936 4.54031H25.036V4.44031V2.87653V2.77653H24.936C24.4647 2.77653 24.1258 2.69139 23.8374 2.55493C23.5463 2.41719 23.3026 2.22561 23.0192 2.00207L23.0188 2.0018C22.3726 1.49209 21.6218 0.9 20.1766 0.9C18.7309 0.9 17.9802 1.49226 17.334 2.00203L17.3339 2.00206C17.3339 2.00207 17.3339 2.00208 17.3339 2.00208C17.0504 2.22562 16.8067 2.41719 16.5156 2.55493C16.2272 2.69139 15.8883 2.77653 15.4169 2.77653C14.9456 2.77653 14.6067 2.69139 14.3184 2.55493C14.0273 2.41719 13.7837 2.22561 13.5002 2.00207L13.5002 2.00203C12.854 1.49226 12.1032 0.9 10.6576 0.9C9.21212 0.9 8.46136 1.49227 7.81519 2.00203L7.81514 2.00207C7.53167 2.22561 7.28802 2.41719 6.99695 2.55493C6.7086 2.69139 6.36975 2.77653 5.89846 2.77653C5.42718 2.77653 5.08833 2.69139 4.79998 2.55493C4.50891 2.41719 4.26525 2.22561 3.98179 2.00207L3.98144 2.0018C3.33516 1.49209 2.58441 0.9 1.13916 0.9H1.03916V1V2.56378V2.66378H1.13916C1.61054 2.66378 1.94939 2.74892 2.23771 2.88537ZM3.05583 3.43824L3.05643 3.4387C3.70265 3.94836 4.45321 4.54031 5.89846 4.54031C7.34393 4.54031 8.09468 3.94804 8.74086 3.43828L8.74091 3.43824C8.74092 3.43823 8.74092 3.43823 8.74093 3.43822C9.02438 3.21469 9.26803 3.02311 9.5591 2.88537C9.84745 2.74892 10.1863 2.66378 10.6576 2.66378C11.129 2.66378 11.4678 2.74892 11.7562 2.88537C12.0472 3.02311 12.2909 3.21469 12.5744 3.43822L3.05583 3.43824Z" fill="#586386" stroke="#586386" stroke-width="0.2"/>
</svg>
