<svg width="69" height="69" viewBox="0 0 69 69" fill="none" xmlns="http://www.w3.org/2000/svg">
<path d="M49.5938 56.0625C50.7846 56.0625 51.75 55.0971 51.75 53.9062C51.75 52.7154 50.7846 51.75 49.5938 51.75C48.4029 51.75 47.4375 52.7154 47.4375 53.9062C47.4375 55.0971 48.4029 56.0625 49.5938 56.0625Z" fill="#DB3C71"/>
<path d="M56.0625 47.4375V60.375H12.9375V47.4375H56.0625ZM56.0625 43.125H12.9375C11.7938 43.125 10.6969 43.5794 9.8881 44.3881C9.07935 45.1969 8.625 46.2938 8.625 47.4375V60.375C8.625 61.5187 9.07935 62.6156 9.8881 63.4244C10.6969 64.2331 11.7938 64.6875 12.9375 64.6875H56.0625C57.2062 64.6875 58.3031 64.2331 59.1119 63.4244C59.9206 62.6156 60.375 61.5187 60.375 60.375V47.4375C60.375 46.2938 59.9206 45.1969 59.1119 44.3881C58.3031 43.5794 57.2062 43.125 56.0625 43.125Z" fill="#DB3C71"/>
<path d="M44.3972 22.8347L36.6562 30.5541V4.3125H32.3438V30.5541L24.6028 22.8347L21.5625 25.875L34.5 38.8125L47.4375 25.875L44.3972 22.8347Z" fill="#DB3C71"/>
<path d="M17.25 51.75H43.125V56.0625H17.25V51.75Z" fill="#DB3C71"/>
</svg>
