<svg width="69" height="69" viewBox="0 0 69 69" fill="none" xmlns="http://www.w3.org/2000/svg">
<path d="M34.5 8.625C25.1677 8.625 17.25 15.2123 17.25 23.7188V30.1875H30.1875V23.7188C30.1875 23.3996 30.3816 22.936 31.1319 22.4379C31.8802 21.942 33.1027 21.5625 34.5 21.5625C35.9059 21.5625 37.1285 21.942 37.8702 22.4379C38.6098 22.9339 38.8125 23.3651 38.8125 23.7188C38.8125 24.9651 38.4071 25.8319 37.5985 26.8194C36.7899 27.8048 35.535 28.8248 34.1636 29.9848C31.4079 32.3179 28.0312 35.5695 28.0312 40.9688V43.125H40.9688V40.9688C40.9688 40.2356 41.2383 39.7224 42.0469 38.8793C42.8555 38.0384 44.1945 37.0444 45.6176 35.8477C48.4639 33.4542 51.75 29.7908 51.75 23.7188C51.75 15.2878 43.8495 8.625 34.5 8.625ZM34.5 12.9375C41.8205 12.9375 47.4375 18.0413 47.4375 23.7188C47.4375 28.3439 45.3308 30.4074 42.7886 32.5464C41.5164 33.6159 40.1602 34.6596 38.9462 35.9145C38.198 36.6908 37.6158 37.6999 37.1953 38.8125H33.0165C33.6914 36.6304 35.0046 34.9722 36.9926 33.286C38.3166 32.1756 39.7569 31.0133 40.9688 29.5126C42.1827 28.014 43.125 26.0518 43.125 23.7188C43.125 21.6488 41.8959 19.9281 40.2938 18.8672C38.6939 17.8063 36.667 17.25 34.5 17.25C32.3265 17.25 30.2953 17.8063 28.704 18.8672C27.1148 19.9281 25.875 21.6552 25.875 23.7188V25.875H21.5625V23.7188C21.5625 17.9314 27.1644 12.9375 34.5 12.9375ZM28.0312 47.4375V60.375H40.9688V47.4375H28.0312ZM32.3438 51.75H36.6562V56.0625H32.3438V51.75Z" fill="#DB3C71"/>
</svg>
