<svg width="166" height="157" viewBox="0 0 166 157" fill="none" xmlns="http://www.w3.org/2000/svg">
<path d="M164 1.5H165.5V0H164V1.5ZM162.5 155V156.5H165.5V155H162.5ZM0 3H5.125V0H0V3ZM15.375 3H25.625V0H15.375V3ZM35.875 3H46.125V0H35.875V3ZM56.375 3H66.625V0H56.375V3ZM76.875 3H87.125V0H76.875V3ZM97.375 3H107.625V0H97.375V3ZM117.875 3H128.125V0H117.875V3ZM138.375 3H148.625V0H138.375V3ZM158.875 3H164V0H158.875V3ZM162.5 1.5V6.29688H165.5V1.5H162.5ZM162.5 15.8906V25.4844H165.5V15.8906H162.5ZM162.5 35.0781V44.6719H165.5V35.0781H162.5ZM162.5 54.2656V63.8594H165.5V54.2656H162.5ZM162.5 73.4531V83.0469H165.5V73.4531H162.5ZM162.5 92.6406V102.234H165.5V92.6406H162.5ZM162.5 111.828V121.422H165.5V111.828H162.5ZM162.5 131.016V140.609H165.5V131.016H162.5ZM162.5 150.203V155H165.5V150.203H162.5Z" fill="#DB3C71"/>
</svg>
