<svg width="27" height="26" viewBox="0 0 27 26" fill="none" xmlns="http://www.w3.org/2000/svg">
<path d="M22.2047 7.58333H17.8714V4.33333C17.8714 1.94025 15.9311 0 13.538 0C11.145 0 9.20471 1.94025 9.20471 4.33333V7.58333H4.87138L2.70471 26H24.3714L22.2047 7.58333ZM10.288 4.33333C10.288 2.5415 11.7462 1.08333 13.538 1.08333C15.3299 1.08333 16.788 2.5415 16.788 4.33333V7.58333H10.288V4.33333ZM5.14113 23.8333L6.79754 9.75H9.20471V11.375C9.20471 11.674 9.44738 11.9167 9.74638 11.9167C10.0454 11.9167 10.288 11.674 10.288 11.375V9.75H16.788V11.375C16.788 11.674 17.0307 11.9167 17.3297 11.9167C17.6287 11.9167 17.8714 11.674 17.8714 11.375V9.75H20.2785L21.935 23.8333H5.14113Z" fill="white"/>
</svg>
