<svg width="26" height="26" viewBox="0 0 26 26" fill="none" xmlns="http://www.w3.org/2000/svg">
<path d="M21.6667 7.58333H17.3334V4.33333C17.3334 1.94025 15.3932 0 13.0001 0C10.607 0 8.66675 1.94025 8.66675 4.33333V7.58333H4.33341L2.16675 26H23.8334L21.6667 7.58333ZM9.75008 4.33333C9.75008 2.5415 11.2082 1.08333 13.0001 1.08333C14.7919 1.08333 16.2501 2.5415 16.2501 4.33333V7.58333H9.75008V4.33333ZM4.60316 23.8333L6.25958 9.75H8.66675V11.375C8.66675 11.674 8.90941 11.9167 9.20841 11.9167C9.50741 11.9167 9.75008 11.674 9.75008 11.375V9.75H16.2501V11.375C16.2501 11.674 16.4927 11.9167 16.7917 11.9167C17.0907 11.9167 17.3334 11.674 17.3334 11.375V9.75H19.7406L21.397 23.8333H4.60316Z" fill="#000C31"/>
</svg>
