<svg width="46" height="21" viewBox="0 0 46 21" fill="none" xmlns="http://www.w3.org/2000/svg">
<path d="M14.3492 11.7615C14.1114 11.6348 12.9267 11.033 12.7063 10.9516C12.486 10.8656 12.3245 10.8249 12.1652 11.0783C12.0038 11.3294 11.5456 11.8882 11.4016 12.0578C11.262 12.2252 11.1202 12.2456 10.8823 12.1212C9.46854 11.3882 8.54128 10.8136 7.60965 9.15533C7.36311 8.71418 7.8562 8.74585 8.31655 7.79343C8.3951 7.62602 8.35583 7.4835 8.29474 7.35681C8.23365 7.23012 7.75365 6.00397 7.55293 5.504C7.35875 5.01761 7.15802 5.08548 7.01184 5.07643C6.87221 5.06738 6.71294 5.06738 6.55149 5.06738C6.39003 5.06738 6.1304 5.13073 5.91004 5.37732C5.68968 5.62843 5.06787 6.23246 5.06787 7.45861C5.06787 8.68477 5.92968 9.87247 6.04749 10.0399C6.16967 10.2073 7.74274 12.7229 10.158 13.8066C11.6852 14.4898 12.283 14.5486 13.0467 14.431C13.5114 14.3586 14.4692 13.8292 14.6677 13.2433C14.8663 12.6596 14.8663 12.1596 14.8074 12.0556C14.7485 11.9447 14.587 11.8814 14.3492 11.7615Z" fill="white"/>
<path d="M19.1361 6.09726C18.6339 4.90403 17.914 3.83301 16.9963 2.91309C16.0786 1.99539 15.0076 1.27323 13.8121 0.773268C12.59 0.259978 11.2924 0 9.95472 0H9.91028C8.56374 0.00666611 7.25942 0.27331 6.03288 0.797711C4.84855 1.30433 3.78643 2.02427 2.87763 2.94197C1.96882 3.85968 1.25556 4.92625 0.762275 6.11504C0.251213 7.34605 -0.00653996 8.65483 0.00012606 10.0014C0.00679208 11.5435 0.375645 13.0745 1.06669 14.4432V17.8207C1.06669 18.3851 1.52442 18.8429 2.08881 18.8429H5.46849C6.83724 19.5339 8.36821 19.9028 9.91028 19.9094H9.95694C11.2879 19.9094 12.5789 19.6517 13.7943 19.1473C14.9831 18.6518 16.0519 17.9407 16.9674 17.0319C17.8851 16.1231 18.6072 15.061 19.1116 13.8766C19.636 12.65 19.9026 11.3457 19.9093 9.99916C19.916 8.64594 19.6538 7.33272 19.1361 6.09726ZM15.7786 15.8298C14.221 17.3719 12.1545 18.2207 9.95472 18.2207H9.91695C8.57708 18.214 7.24609 17.8807 6.07065 17.2541L5.884 17.1541H2.75542V14.0255L2.65543 13.8388C2.02882 12.6634 1.69552 11.3324 1.68885 9.99249C1.67996 7.77712 2.52655 5.6973 4.07973 4.13076C5.63069 2.56423 7.70383 1.69763 9.91917 1.68875H9.95694C11.0679 1.68875 12.1456 1.90428 13.1611 2.33091C14.1521 2.74644 15.0409 3.34416 15.8053 4.10854C16.5674 4.8707 17.1674 5.76174 17.5829 6.75277C18.0139 7.77935 18.2295 8.86814 18.225 9.99249C18.2117 12.2056 17.3429 14.2788 15.7786 15.8298Z" fill="white"/>
<path d="M33.3647 10.7678L31.3208 10.0938C30.879 9.95104 30.8765 9.62917 31.4198 9.39814L39.3834 6.14481C39.8457 5.9458 40.1075 6.19759 39.9578 6.82835L38.602 13.5946C38.5071 14.0765 38.233 14.1916 37.8525 13.9693L35.7653 12.3357L34.7924 13.329C34.6926 13.4311 34.6116 13.5185 34.4578 13.5401C34.3048 13.5626 34.1788 13.5141 34.0863 13.2459L33.3745 10.7618L33.3647 10.7687V10.7678Z" fill="white"/>
<path fill-rule="evenodd" clip-rule="evenodd" d="M36 18.4017C40.5482 18.4017 44.2353 14.8989 44.2353 10.5781C44.2353 6.25731 40.5482 2.7546 36 2.7546C31.4518 2.7546 27.7647 6.25731 27.7647 10.5781C27.7647 14.8989 31.4518 18.4017 36 18.4017ZM36 20.0781C41.5228 20.0781 46 15.8248 46 10.5781C46 5.33142 41.5228 1.07812 36 1.07812C30.4772 1.07812 26 5.33142 26 10.5781C26 15.8248 30.4772 20.0781 36 20.0781Z" fill="white"/>
</svg>
