<svg width="732" height="16" viewBox="0 0 732 16" fill="none" xmlns="http://www.w3.org/2000/svg">
<path d="M0.292893 7.29289C-0.0976311 7.68342 -0.0976311 8.31658 0.292893 8.70711L6.65685 15.0711C7.04738 15.4616 7.68054 15.4616 8.07107 15.0711C8.46159 14.6805 8.46159 14.0474 8.07107 13.6569L2.41421 8L8.07107 2.34315C8.46159 1.95262 8.46159 1.31946 8.07107 0.928932C7.68054 0.538408 7.04738 0.538408 6.65685 0.928932L0.292893 7.29289ZM731.707 8.70711C732.098 8.31658 732.098 7.68342 731.707 7.29289L725.343 0.928932C724.953 0.538408 724.319 0.538408 723.929 0.928932C723.538 1.31946 723.538 1.95262 723.929 2.34315L729.586 8L723.929 13.6569C723.538 14.0474 723.538 14.6805 723.929 15.0711C724.319 15.4616 724.953 15.4616 725.343 15.0711L731.707 8.70711ZM1 9H731V7H1V9Z" fill="#A0A9B7"/>
</svg>
