<svg width="270" height="364" viewBox="0 0 270 364" fill="none" xmlns="http://www.w3.org/2000/svg">
<rect x="1.5" y="1.5" width="267" height="361" stroke="white" stroke-width="3" stroke-dasharray="10 10"/>
<path fill-rule="evenodd" clip-rule="evenodd" d="M112.516 116H136.564L136.492 128.322C140.991 129.543 145.288 131.452 149.202 133.982C151.034 135.166 151.551 137.598 150.357 139.415C149.163 141.231 146.71 141.744 144.877 140.56C140.895 137.986 136.423 136.189 131.752 135.28L128.535 134.654L128.598 123.853H120.456L120.484 134.71L117.321 135.361C115.012 135.837 112.73 136.52 110.502 137.441C108.284 138.361 106.205 139.492 104.255 140.782L101.571 142.558L93.6812 134.83L88.0136 140.482L95.8887 148.195L94.1027 150.885C91.492 154.816 89.675 159.21 88.7574 163.819L88.1283 166.979L76.9198 166.999V174.926L88.1844 174.886L88.8463 178.019C89.3245 180.282 90.0156 182.536 90.9464 184.717L90.9468 184.718L90.9472 184.719C91.8851 186.92 93.023 188.965 94.3266 190.863C95.5576 192.656 95.0901 195.098 93.2825 196.319C91.4748 197.539 89.0115 197.076 87.7805 195.283C86.1928 192.972 84.801 190.471 83.6527 187.777C83.6525 187.777 83.6523 187.776 83.6521 187.776M83.652 187.776C82.9458 186.121 82.3566 184.443 81.8737 182.761L69 182.807V159.16L81.7399 159.138C82.6881 155.723 84.0484 152.434 85.7891 149.341L76.7954 140.532L93.6312 123.742L102.626 132.553C104.159 131.686 105.765 130.894 107.449 130.195L107.453 130.194C109.136 129.498 110.838 128.916 112.548 128.438L112.516 116" fill="#9D85F2"/>
<path fill-rule="evenodd" clip-rule="evenodd" d="M134.659 137H158.233L158.163 149.316C161.551 150.254 164.822 151.597 167.896 153.316L176.43 144.66L193.109 161.269L184.564 169.929C185.423 171.439 186.204 173.018 186.894 174.668C187.589 176.326 188.163 177.994 188.633 179.667L201 179.59V203.203L188.771 203.279C187.84 206.698 186.505 209.992 184.796 213.089L193.805 222.064L177.289 238.824L168.3 229.864C166.789 230.735 165.209 231.529 163.554 232.231L163.548 232.233L163.542 232.236C161.905 232.923 160.24 233.507 158.56 233.984V246.998L153.075 246.991C153.041 246.991 153.007 246.991 152.972 246.991C151.909 246.993 150.438 246.997 148.802 246.998C145.536 247.002 141.601 247.001 138.971 246.981L135.12 246.951L135.115 234.102C131.713 233.166 128.428 231.819 125.341 230.086L116.345 239.139L99.6566 222.558L108.686 213.465C107.83 211.963 107.052 210.389 106.364 208.743L106.363 208.741C105.671 207.087 105.094 205.41 104.62 203.729L92 203.775V180.14L104.489 180.117C105.419 176.704 106.752 173.417 108.459 170.325L99.6419 161.52L116.146 144.738L124.964 153.545C126.466 152.678 128.041 151.886 129.691 151.188L129.693 151.187L129.696 151.187C131.346 150.491 133.014 149.909 134.69 149.432L134.659 137ZM150.796 239.147C150.172 239.148 149.498 239.149 148.794 239.149C146.91 239.152 144.814 239.152 142.881 239.148L142.875 227.758L139.739 227.138C135.154 226.233 130.775 224.444 126.879 221.861L124.245 220.115L116.31 228.099L110.695 222.52L118.641 214.519L116.828 211.827C115.55 209.93 114.434 207.886 113.515 205.686L113.514 205.685L113.514 205.684C112.602 203.504 111.924 201.251 111.456 198.989L110.807 195.858L99.7637 195.898V187.974L110.752 187.954L111.368 184.796C112.268 180.189 114.049 175.798 116.608 171.868L118.359 169.18L110.639 161.47L116.195 155.82L123.929 163.545L126.561 161.77C128.472 160.481 130.51 159.35 132.685 158.43C134.868 157.51 137.106 156.827 139.369 156.352L142.47 155.701L142.442 144.849H150.424L150.363 155.645L153.516 156.27C158.095 157.179 162.479 158.976 166.383 161.548L169.025 163.29L176.48 155.727L182.094 161.318L174.629 168.885L176.425 171.565C177.707 173.477 178.824 175.528 179.744 177.726L179.744 177.728L179.745 177.729C180.661 179.913 181.328 182.144 181.797 184.413L182.447 187.554L193.236 187.487V195.402L182.506 195.469L181.89 198.611C180.985 203.226 179.204 207.62 176.645 211.55L174.892 214.241L182.795 222.115L177.24 227.753L169.336 219.874L166.709 221.639C164.78 222.934 162.736 224.066 160.56 224.989C158.368 225.908 156.138 226.597 153.918 227.045L150.796 227.675V239.147Z" fill="#9D85F2"/>
<path fill-rule="evenodd" clip-rule="evenodd" d="M146.5 182.771C141.434 182.771 137.327 187.127 137.327 192.5C137.327 197.873 141.434 202.229 146.5 202.229C151.566 202.229 155.673 197.873 155.673 192.5C155.673 187.127 151.566 182.771 146.5 182.771ZM130 192.5C130 182.835 137.387 175 146.5 175C155.613 175 163 182.835 163 192.5C163 202.165 155.613 210 146.5 210C137.387 210 130 202.165 130 192.5Z" fill="#9D85F2"/>
</svg>
