<svg id="Layer_1" enable-background="new 0 0 512 512" height="50px" width="50px" viewBox="0 0 512 512"  xmlns="http://www.w3.org/2000/svg"><g><path d="m408.467 512h-304.934c-17.069 0-30.905-13.837-30.905-30.905v-419.284c0-17.069 13.837-30.905 30.905-30.905h304.934c17.069 0 30.905 13.837 30.905 30.905v419.284c0 17.068-13.837 30.905-30.905 30.905z" fill="#f78e36"/><path d="m408.467 30.905v481.095c17.069 0 30.905-13.837 30.905-30.905v-419.284c0-17.069-13.837-30.906-30.905-30.906z" fill="#f86f1b"/><path d="m103.533 477.095v-411.284c0-2.209 1.791-4 4-4h296.934c2.209 0 4 1.791 4 4v411.284c0 2.209-1.791 4-4 4h-296.934c-2.209 0-4-1.791-4-4z" fill="#f3f3f3"/><path d="m377.561 61.811v419.284h26.905c2.209 0 4-1.791 4-4v-411.284c0-2.209-1.791-4-4-4z" fill="#e4e4e4"/><path d="m357.988 30.905h-203.976c-3.414 0-6.181-2.767-6.181-6.181v-18.543c0-3.414 2.767-6.181 6.181-6.181h203.976c3.414 0 6.181 2.767 6.181 6.181v18.543c0 3.414-2.767 6.181-6.181 6.181z" fill="#a9dbf5"/><path d="m357.988 0h-30.905c3.414 0 6.181 2.767 6.181 6.181v18.543c0 3.414-2.767 6.181-6.181 6.181h30.905c3.414 0 6.181-2.767 6.181-6.181v-18.543c0-3.414-2.767-6.181-6.181-6.181z" fill="#88c3e0"/><path d="m335.324 23.405c-4.143 0-7.5 3.357-7.5 7.5 0 26.539-21.591 48.13-48.13 48.13h-47.389c-26.539 0-48.13-21.591-48.13-48.13 0-4.143-3.357-7.5-7.5-7.5s-7.5 3.357-7.5 7.5c0 34.81 28.32 63.13 63.13 63.13h47.389c34.81 0 63.13-28.32 63.13-63.13 0-4.142-3.357-7.5-7.5-7.5z" fill="#43809f"/><path d="m295.546 201.35c-4.143 0-7.5 3.357-7.5 7.5v149.364h-92.348c-4.143 0-7.5 3.357-7.5 7.5s3.357 7.5 7.5 7.5h99.848c4.143 0 7.5-3.357 7.5-7.5v-156.864c0-4.143-3.358-7.5-7.5-7.5z" fill="#43809f"/><path d="m301.406 136.624 13.296 26.936c.952 1.928 2.792 3.265 4.92 3.574l29.732 4.319c5.36.779 7.5 7.364 3.622 11.144l-21.514 20.967c-1.54 1.501-2.243 3.663-1.879 5.783l5.079 29.605c.916 5.337-4.687 9.407-9.482 6.887l-26.593-13.978c-1.904-1.001-4.178-1.001-6.082 0l-26.593 13.978c-4.794 2.52-10.397-1.55-9.482-6.887l5.079-29.605c.364-2.119-.339-4.282-1.879-5.783l-21.514-20.967c-3.878-3.78-1.738-10.365 3.622-11.144l29.732-4.319c2.128-.309 3.968-1.646 4.92-3.574l13.296-26.936c2.397-4.856 9.323-4.856 11.72 0z" fill="#ffc328"/><g fill="#43809f"><path d="m140.62 146.06h41.207c4.143 0 7.5-3.357 7.5-7.5s-3.357-7.5-7.5-7.5h-41.207c-4.143 0-7.5 3.357-7.5 7.5s3.358 7.5 7.5 7.5z"/><path d="m181.827 165.056h-41.207c-4.143 0-7.5 3.357-7.5 7.5s3.357 7.5 7.5 7.5h41.207c4.143 0 7.5-3.357 7.5-7.5s-3.357-7.5-7.5-7.5z"/><path d="m181.827 199.052h-41.207c-4.143 0-7.5 3.357-7.5 7.5s3.357 7.5 7.5 7.5h41.207c4.143 0 7.5-3.357 7.5-7.5s-3.357-7.5-7.5-7.5z"/></g><path d="m131.392 430.566c-.575 4.068-1.948 9.893-3.174 14.627-1.145 4.422-5.133 7.514-9.708 7.514h-14.011c-4.576 0-8.563-3.092-9.709-7.514-1.226-4.734-2.599-10.559-3.174-14.627-.428-3.031-2.252-5.684-4.909-7.211l-12.946-7.442c-2.654-1.526-5.865-1.774-8.706-.63-3.833 1.543-9.61 3.278-14.352 4.591-4.404 1.219-9.075-.676-11.364-4.624l-6.996-12.065c-2.291-3.952-1.6-8.945 1.669-12.139 3.508-3.428 7.895-7.531 11.147-10.06 2.417-1.88 3.81-4.78 3.81-7.839v-14.865c0-3.059-1.393-5.959-3.81-7.839-3.253-2.53-7.64-6.633-11.147-10.06-3.269-3.194-3.96-8.187-1.669-12.139l6.996-12.065c2.289-3.948 6.96-5.842 11.364-4.624 4.742 1.312 10.519 3.048 14.352 4.591 2.841 1.144 6.051.896 8.706-.63l12.946-7.442c2.657-1.527 4.481-4.181 4.909-7.211.575-4.068 1.948-9.893 3.174-14.627 1.145-4.422 5.133-7.514 9.709-7.514h14.011c4.576 0 8.563 3.092 9.708 7.514 1.226 4.734 2.599 10.559 3.174 14.627.428 3.031 2.252 5.684 4.909 7.211l12.946 7.442c2.654 1.526 5.865 1.774 8.706.63 3.832-1.543 9.61-3.278 14.352-4.591 4.404-1.219 9.075.676 11.364 4.624l6.996 12.065c2.291 3.952 1.6 8.945-1.669 12.139-3.508 3.428-7.895 7.531-11.147 10.06-2.417 1.88-3.81 4.78-3.81 7.839v14.865c0 3.059 1.393 5.959 3.81 7.839 3.253 2.53 7.64 6.633 11.147 10.06 3.269 3.194 3.96 8.187 1.669 12.139l-6.996 12.065c-2.289 3.948-6.96 5.842-11.364 4.624-4.742-1.312-10.519-3.048-14.352-4.591-2.841-1.144-6.051-.896-8.706.63l-12.946 7.442c-2.657 1.527-4.48 4.181-4.909 7.211zm14.61-64.852c0-18.97-15.445-34.348-34.497-34.348s-34.497 15.378-34.497 34.348 15.445 34.348 34.497 34.348 34.497-15.378 34.497-34.348z" fill="#43809f"/><path d="m476.875 447.614h-86.705c-2.278 0-4.125-1.847-4.125-4.125v-115.372c0-2.278 1.847-4.125 4.125-4.125h86.705c2.278 0 4.125 1.847 4.125 4.125v115.373c0 2.277-1.847 4.124-4.125 4.124z" fill="#29cef6"/><path d="m476.872 323.992h-30.963c2.28 0 4.128 1.845 4.128 4.121v115.38c0 2.276-1.848 4.121-4.128 4.121h30.963c2.28 0 4.128-1.845 4.128-4.121v-115.38c0-2.276-1.848-4.121-4.128-4.121z" fill="#22b5ed"/><g fill="#f3f3f3"><path d="m412.904 384.808c4.143 0 7.5-3.357 7.5-7.5v-12.534c0-4.143-3.357-7.5-7.5-7.5s-7.5 3.357-7.5 7.5v12.534c0 4.142 3.358 7.5 7.5 7.5z"/><path d="m433.191 384.808c4.143 0 7.5-3.357 7.5-7.5v-27.506c0-4.143-3.357-7.5-7.5-7.5s-7.5 3.357-7.5 7.5v27.506c0 4.142 3.358 7.5 7.5 7.5z"/><path d="m453.478 363.541c-4.143 0-7.5 3.357-7.5 7.5v6.267c0 4.143 3.357 7.5 7.5 7.5s7.5-3.357 7.5-7.5v-6.267c0-4.143-3.358-7.5-7.5-7.5z"/><path d="m453.478 392.194h-40.573c-4.143 0-7.5 3.357-7.5 7.5s3.357 7.5 7.5 7.5h40.573c4.143 0 7.5-3.357 7.5-7.5s-3.358-7.5-7.5-7.5z"/></g></g></svg>