<?xml version="1.0" encoding="utf-8"?><svg width="26" height="26" fill="none" xmlns="http://www.w3.org/2000/svg" viewBox="0 0 26 26"><g clip-path="url(#cclip0)" fill="#000C31"><path d="M22.445 13.499a.513.513 0 01-.477-.337.511.511 0 01.149-.559c.167-.14.41-.159.596-.043.178.11.27.325.23.53a.513.513 0 01-.498.409zM18.011 20.059h-2.085a.508.508 0 010-1.016h2.085a.508.508 0 010 1.016zM18.011 21.614h-2.085a.508.508 0 010-1.015h2.085a.508.508 0 010 1.015zM18.011 13.432h-2.085a.508.508 0 010-1.016h2.085a.508.508 0 010 1.016zM10.074 12.417H9.54v-.535a.508.508 0 10-1.015 0v.535h-.535a.508.508 0 000 1.015h.535v.535a.508.508 0 001.015 0v-.535h.535a.508.508 0 100-1.015zM10.128 19.291a.508.508 0 00-.718 0l-.379.379-.378-.379a.508.508 0 00-.718.719l.378.378-.378.378a.508.508 0 00.718.719l.378-.379.379.379a.506.506 0 00.718 0 .508.508 0 000-.719l-.379-.378.379-.378a.508.508 0 000-.719z"/><path d="M19.975 23.649h-6.014a.508.508 0 01-.507-.508v-5.506c0-.28.227-.508.507-.508h6.014c.28 0 .508.228.508.508v5.506c0 .28-.227.508-.508.508zm-5.506-1.016h4.998v-4.49H14.47v4.49zM12.038 23.649H6.024a.508.508 0 01-.507-.508v-5.506c0-.28.227-.508.507-.508h6.014c.28 0 .508.228.508.508v5.506c0 .28-.227.508-.508.508zm-5.506-1.016h4.998v-4.49H6.532v4.49zM19.975 16.185h-6.014a.508.508 0 01-.507-.508v-5.506c0-.28.227-.507.507-.507h6.014c.28 0 .508.227.508.507v5.506c0 .28-.227.508-.508.508zM14.47 15.17h4.998v-4.49H14.47v4.49zM12.038 16.185H6.024a.508.508 0 01-.507-.508v-5.506c0-.28.227-.507.507-.507h6.014c.28 0 .508.227.508.507v5.506c0 .28-.227.508-.508.508zM6.532 15.17h4.998v-4.49H6.532v4.49zM19.975 7.827H6.025a.508.508 0 01-.508-.508v-4.46c0-.28.227-.508.507-.508h13.951c.28 0 .508.227.508.508v4.46c0 .28-.227.508-.508.508zM6.532 6.81h12.935V3.367H6.532V6.81z"/><path d="M21.477 26H4.523a1.478 1.478 0 01-1.476-1.476V1.476C3.047.662 3.709 0 4.523 0h16.954c.814 0 1.476.662 1.476 1.476v9.228a.508.508 0 01-1.016 0V1.476a.461.461 0 00-.46-.46H4.523a.461.461 0 00-.46.46v23.048c0 .254.206.46.46.46h16.954c.254 0 .46-.206.46-.46v-9.228a.508.508 0 011.016 0v9.228c0 .814-.662 1.476-1.476 1.476z"/></g><defs><clipPath id="cclip0"><path fill="#fff" d="M0 0h26v26H0z"/></clipPath></defs></svg>