<?xml version="1.0" encoding="utf-8"?><svg width="26" height="19" fill="none" xmlns="http://www.w3.org/2000/svg" viewBox="0 0 26 19"><path d="M3.949 15.838h0-.001c-.672-.51-1.45-1.101-2.948-1.101H.9V16.5H1c.49 0 .844.085 1.144.222.303.138.556.33.85.553h0l.001.001c.672.51 1.45 1.1 2.948 1.1 1.499 0 2.277-.59 2.948-1.1h0c.295-.224.548-.416.851-.554.3-.137.653-.222 1.144-.222.49 0 .844.085 1.144.222.303.138.556.33.85.553h0c.672.51 1.45 1.101 2.949 1.101 1.499 0 2.277-.59 2.948-1.1h0c.295-.224.549-.416.851-.554.3-.137.654-.222 1.144-.222.491 0 .844.085 1.144.222.303.138.557.33.851.553l.06-.08-.06.08h0c.672.51 1.45 1.101 2.949 1.101h.1V16.613h-.1c-.49 0-.844-.085-1.144-.222-.303-.138-.557-.33-.851-.553h0c-.672-.51-1.45-1.101-2.949-1.101-1.498 0-2.276.59-2.948 1.1h0c-.295.224-.548.416-.85.554-.301.137-.654.223-1.145.223-.49 0-.844-.086-1.144-.223-.303-.138-.556-.33-.85-.553-.672-.51-1.45-1.101-2.95-1.101-1.497 0-2.276.59-2.947 1.1h0c-.295.224-.548.416-.851.554-.3.137-.653.223-1.144.223-.49 0-.843-.086-1.144-.223-.303-.138-.556-.33-.85-.553zM17.824 6.613h0c.671-.51 1.45-1.1 2.948-1.1 1.499 0 2.277.59 2.949 1.1h0c.294.224.548.415.85.554.301.136.654.222 1.145.222h.1V9.153h-.1c-1.5 0-2.277-.591-2.949-1.101l-4.943-1.439zm0 0s0 0 0 0m0 0h0m0 0c-.295.224-.548.415-.851.554m.85-.554l-.85.554m0 0c-.3.136-.653.222-1.144.222-.49 0-.844-.086-1.144-.222-.303-.139-.556-.33-.85-.554l-.061.08 3.199.474zm-13.978.885h0c.671.51 1.45 1.1 2.948 1.1s2.277-.59 2.948-1.1h0c.295-.224.548-.416.851-.554.3-.137.653-.222 1.144-.222.49 0 .844.085 1.144.222.303.138.556.33.85.554.672.51 1.45 1.1 2.949 1.1 1.498 0 2.277-.59 2.948-1.1h0c.295-.224.549-.416.851-.554.3-.137.654-.222 1.144-.222.491 0 .844.085 1.144.222.303.138.557.33.851.554H2.995zM13.835 11.225l-.061.08.06-.08h0c-.67-.51-1.45-1.1-2.948-1.1-1.499 0-2.277.59-2.948 1.1h0c-.295.224-.548.416-.851.554-.3.137-.653.222-1.144.222-.49 0-.843-.085-1.144-.222-.303-.138-.556-.33-.85-.554h0c-.672-.51-1.45-1.1-2.949-1.1H.9V11.888H1c.49 0 .844.086 1.144.223.303.138.556.33.85.553h.002c.67.51 1.449 1.1 2.947 1.1s2.277-.59 2.948-1.1h0c.295-.223.548-.415.851-.553.3-.137.653-.223 1.144-.223.49 0 .844.086 1.144.223.303.138.556.33.85.553h.001c.671.51 1.45 1.1 2.948 1.1s2.277-.59 2.948-1.1h0c.295-.223.549-.415.851-.553.3-.137.654-.223 1.144-.223.491 0 .844.086 1.144.223.303.138.557.33.851.553h0c.672.51 1.45 1.1 2.949 1.1h.1V12.002h-.1c-.49 0-.844-.085-1.144-.222-.303-.138-.557-.33-.851-.554h0c-.672-.51-1.45-1.1-2.949-1.1-1.498 0-2.277.59-2.948 1.1h0c-.295.224-.548.416-.851.554-.3.137-.653.222-1.144.222-.49 0-.844-.085-1.144-.222-.303-.138-.556-.33-.85-.554zM2.995 3.44c-.295-.224-.548-.416-.851-.554-.3-.137-.653-.222-1.144-.222H.9V.9H1c1.499 0 2.277.591 2.949 1.1v.001l-.954 1.438zm0 0h0c.671.51 1.45 1.1 2.948 1.1 1.499 0 2.277-.59 2.948-1.1.295-.224.548-.416.851-.554.3-.137.653-.222 1.144-.222.49 0 .844.085 1.144.222.303.138.556.33.85.553H2.996zm22.82 1.1h-.1c-1.498 0-2.276-.59-2.948-1.1l3.049 1.1zm0 0v-.1m0 .1v-.1m0 0V2.777m0 1.663V2.777m0 0h-.1m.1 0h-.1m0 0c-.49 0-.843-.086-1.143-.223-.303-.138-.557-.33-.851-.553h0m1.995.776L23.72 2m0 0C23.049 1.49 22.271.9 20.772.9M23.721 2L20.772.9m0 0c-1.498 0-2.277.591-2.948 1.1L20.772.9zM15.83 4.54c-1.499 0-2.277-.59-2.948-1.1l2.948 1.1zm0 0c1.499 0 2.277-.59 2.949-1.1m-2.949 1.1l2.949-1.1m0 0h0m0 0h0m0 0c.294-.224.548-.416.85-.554m-.85.553l.85-.553m0 0c.3-.137.654-.222 1.144-.222m-1.144.222l1.144-.222m0 0c.491 0 .844.085 1.144.222m-1.144-.222l1.144.222m0 0c.303.138.557.33.851.553l-.85-.553zm-4.092-.885c-.295.223-.548.415-.85.553-.301.137-.654.223-1.145.223-.49 0-.844-.086-1.144-.223-.303-.138-.556-.33-.85-.553-.672-.51-1.45-1.101-2.95-1.101-1.498 0-2.276.591-2.947 1.101-.295.223-.548.415-.851.553-.3.137-.653.223-1.144.223-.49 0-.843-.086-1.144-.223-.303-.138-.556-.33-.85-.553h13.875z" fill="#586386" stroke="#586386" stroke-width=".2"/></svg>