<?xml version="1.0" encoding="utf-8"?><svg width="26" height="26" fill="none" xmlns="http://www.w3.org/2000/svg" viewBox="0 0 26 26"><path d="M12.763 9.989a.815.815 0 00-1.15-.002l-2.675 2.677-1.05-1.052a.813.813 0 00-1.15 1.15l1.626 1.624c.157.16.365.24.573.24.209 0 .417-.08.576-.238l3.25-3.25a.813.813 0 000-1.149zM12.763 16.489a.815.815 0 00-1.15-.002l-2.675 2.677-1.05-1.05a.813.813 0 00-1.15 1.149l1.626 1.625a.816.816 0 001.149 0l3.25-3.25a.813.813 0 000-1.149zM18.688 11.375h-3.25a.813.813 0 000 1.625h3.25a.813.813 0 000-1.625zM18.688 17.875h-3.25a.813.813 0 000 1.625h3.25a.813.813 0 000-1.625z" fill="#000C31"/><path d="M21.125 3.25h-3.25v-.813a.813.813 0 00-.813-.812H15.3A2.444 2.444 0 0013 0c-1.06 0-1.963.68-2.3 1.625H8.939a.813.813 0 00-.813.813v.812h-3.25c-.895 0-1.625.73-1.625 1.625v19.5c0 .895.73 1.625 1.625 1.625h16.25c.895 0 1.625-.73 1.625-1.625v-19.5c0-.895-.73-1.625-1.625-1.625zm-11.375 0h1.625a.813.813 0 00.813-.813.813.813 0 011.624 0c0 .449.365.813.813.813h1.625v1.625h-6.5V3.25zm11.375 21.125H4.875v-19.5h3.25v.813c0 .448.364.812.813.812h8.124a.813.813 0 00.813-.813v-.812h3.25v19.5z" fill="#000C31"/></svg>