<?xml version="1.0" encoding="utf-8"?><svg width="22" height="22" fill="none" xmlns="http://www.w3.org/2000/svg" viewBox="0 0 22 22"><path d="M18.005 18.53h0l-1.48-4.813 3.902-2.97c.712-.542.992-1.456.721-2.32-.27-.867-1.02-1.44-1.91-1.44h-4.812l-1.518-4.804C12.635 1.32 11.888.75 11 .75h-.009c-.89.004-1.637.58-1.905 1.449L7.614 6.988H2.761c-.892 0-1.64.574-1.91 1.443-.27.868.014 1.783.73 2.322l3.935 2.964L4 18.514c-.273.866.006 1.782.719 2.325.357.272.771.411 1.189.411.414 0 .825-.137 1.18-.404l3.932-2.962 3.884 2.956a1.926 1.926 0 002.367.007c.715-.538 1-1.451.734-2.318zm1.428-9.167h0l-4.724 3.596-.14.105.052.167 1.79 5.818h0a.349.349 0 01-.015.277.376.376 0 01-.26.198c-.06.01-.14.007-.238-.068h0l-4.722-3.594-.15-.114-.152.114L6.1 19.457c-.1.075-.179.078-.238.066a.374.374 0 01-.26-.2.349.349 0 01-.013-.277l-.238-.075.238.075 1.837-5.813.053-.169-.14-.106-4.772-3.594s0 0 0 0a.358.358 0 01-.125-.409.42.42 0 01.086-.153.293.293 0 01.232-.093h6.077l.055-.177L10.68 2.72c.04-.128.106-.182.16-.21a.365.365 0 01.157-.038H11c.03 0 .094.005.157.037.055.028.121.082.161.208 0 0 0 0 0 0l1.839 5.818.055.175h6.027c.12 0 .187.045.231.093a.42.42 0 01.087.153.358.358 0 01-.124.408z" fill="#586386" stroke="#586386" stroke-width=".5"/></svg>