<svg id="Capa_1" enable-background="new 0 0 512 512" height="50px" viewBox="0 0 512 512" width="50px" xmlns="http://www.w3.org/2000/svg"><g><g><path d="m75.388 0-27.354 47.354-47.353 27.353v437.293h193.928l30-228.074-30-283.926z" fill="#fff5f5"/><path d="m194.609 0h193.928v512h-193.928z" fill="#dce6eb"/></g><path d="m75.388 0v74.707h-74.707z" fill="#dce6eb"/><g><path d="m194.609 171.457h-83.499v-30h83.499l10 15z" fill="#dce6eb"/></g><g><path d="m194.609 141.457h83.499v30h-83.499z" fill="#c8d2dc"/></g><g><path d="m194.609 235.192h-128.372v-30h128.372l10 15z" fill="#dce6eb"/></g><g><path d="m194.609 205.192h128.371v30h-128.371z" fill="#c8d2dc"/></g><g><path d="m194.609 298.926h-128.372v-30h128.372l10 15z" fill="#dce6eb"/></g><g><path d="m194.609 268.926h70.616v30h-70.616z" fill="#c8d2dc"/></g><g><path d="m110.993 452.643h-62.512v-30h50.086l35.199-35.199 39.591 39.593-22.487 19.938-17.104-17.104z" fill="#ff6c6c"/></g><g><g><path d="m441.011 108.155h69.946v30h-69.946z" fill="#2d2d2d" transform="matrix(.707 -.707 .707 .707 52.328 372.642)"/></g><g><path d="m471.796 127.343c-14.235-14.235-37.315-14.235-51.55 0l-20.701 20.701 17.849 47.849 33.701 3.701 20.701-20.701c14.235-14.235 14.235-37.315 0-51.55z" fill="#218adc"/><path d="m187.729 359.859-36.841 87.097 1.296 1.294 87.096-36.841 7.746-7.746-15.368-45.367-36.182-6.183z" fill="#218adc"/><path d="m178.987 239.402h288.597v72.903h-288.597z" fill="#1865a1" transform="matrix(.707 -.707 .707 .707 -100.37 309.393)"/></g></g></g></svg>