<?xml version="1.0" encoding="utf-8"?><svg viewBox="0 0 204 131" xmlns="http://www.w3.org/2000/svg" xmlns:xlink="http://www.w3.org/1999/xlink"><style>:root>svg{display:none}:root>svg:target{display:block}</style><svg fill="none" viewBox="0 0 204 131" id="mail" xmlns="http://www.w3.org/2000/svg"><path d="M2 27.407V2h200v127.5H2V27.407z" fill="#3B3B35"/><path d="M2 27.407l101.01 62.965L202 27.407m-200 0V2h200v25.407m-200 0V129.5h200V27.407" stroke="#F29F05" stroke-width="3" stroke-linecap="square" stroke-dasharray="10 10"/></svg><svg fill="none" viewBox="0 0 46 21" id="tg_whats" xmlns="http://www.w3.org/2000/svg"><path d="M14.35 11.761c-.239-.126-1.423-.728-1.644-.81-.22-.085-.381-.126-.54.127-.162.251-.62.81-.764.98-.14.167-.282.188-.52.063-1.413-.733-2.34-1.307-3.272-2.966-.247-.44.246-.41.707-1.362.078-.167.039-.31-.022-.436-.061-.127-.541-1.353-.742-1.853-.194-.486-.395-.419-.541-.428-.14-.009-.3-.009-.46-.009a.876.876 0 00-.642.31c-.22.251-.842.855-.842 2.082 0 1.226.862 2.413.98 2.58.122.168 1.695 2.684 4.11 3.768 1.527.683 2.125.742 2.889.624.464-.072 1.422-.602 1.62-1.188.2-.583.2-1.083.14-1.187-.059-.111-.22-.175-.458-.294z" fill="#fff"/><path d="M19.136 6.097A9.958 9.958 0 0013.812.773 9.907 9.907 0 009.955 0H9.91A9.931 9.931 0 000 10.001a9.985 9.985 0 001.067 4.442v3.378c0 .564.457 1.022 1.022 1.022h3.38a9.985 9.985 0 004.441 1.066h.047a9.96 9.96 0 003.837-.762 9.877 9.877 0 003.173-2.115 9.932 9.932 0 002.942-7.033 9.917 9.917 0 00-.773-3.902zM15.78 15.83a8.222 8.222 0 01-5.824 2.39h-.038a8.296 8.296 0 01-3.846-.966l-.187-.1H2.755v-3.129l-.1-.186a8.295 8.295 0 01-.966-3.847 8.215 8.215 0 012.39-5.861 8.204 8.204 0 015.84-2.442h.038a8.226 8.226 0 015.848 2.42 8.233 8.233 0 012.42 5.884 8.234 8.234 0 01-2.446 5.837zM33.365 10.768l-2.044-.674c-.442-.143-.445-.465.099-.696l7.963-3.253c.463-.2.724.053.575.683l-1.356 6.767c-.095.481-.369.597-.75.374l-2.087-1.633-.973.993c-.1.102-.18.19-.334.211-.153.023-.28-.026-.372-.294l-.712-2.484-.01.007v-.001z" fill="#fff"/><path fill-rule="evenodd" clip-rule="evenodd" d="M36 18.402c4.548 0 8.235-3.503 8.235-7.824 0-4.32-3.687-7.823-8.235-7.823s-8.235 3.502-8.235 7.823c0 4.32 3.687 7.824 8.235 7.824zm0 1.676c5.523 0 10-4.253 10-9.5s-4.477-9.5-10-9.5-10 4.253-10 9.5 4.477 9.5 10 9.5z" fill="#fff"/></svg></svg>